<svg width="276" height="233" viewBox="0 0 276 233" fill="none" xmlns="http://www.w3.org/2000/svg">
<path d="M235.277 154.135C214.643 202.634 159.68 229.804 112.015 222.475C104.259 221.282 82.9957 217.73 64.1701 200.971C27.9294 168.708 20.179 104.823 49.4133 59.8018C70.6907 27.0344 108.833 8.45957 145.075 9.38874C152.882 9.58884 182.8 10.8223 209.093 32.465C212.954 35.6439 221.472 43.1978 229.149 55.1816C247.175 83.3217 248.724 122.527 235.277 154.135Z" fill="#666668"/>
<path d="M74.4011 98.7337C74.4011 98.7337 95.5659 116.657 104.086 90.287C104.086 90.287 104.221 89.6282 103.903 88.7704C103.743 88.3372 103.748 86.6964 103.763 85.8559C103.767 85.5857 103.536 85.3733 103.267 85.3962C103.055 85.4143 102.868 85.5385 102.769 85.7259L100.959 89.1581C100.892 89.7844 101.292 90.3661 101.901 90.5293C102.29 90.6333 102.486 91.0663 102.303 91.4245C94.8341 106.081 75.8073 94.9738 75.5369 95.1945C74.5774 95.9775 73.4636 96.853 74.4011 98.7337Z" fill="url(#paint0_linear_4861_121083)"/>
<path d="M143.497 32.1083C143.369 31.2679 143.896 30.4498 144.738 30.2312C146.579 29.7524 148.469 29.3466 150.354 29.0247C151.271 28.868 152.142 29.4831 152.299 30.3984C152.3 30.4095 152.302 30.4202 152.303 30.4309C152.441 31.3343 151.828 32.1849 150.922 32.3396C149.131 32.6453 147.336 33.0311 145.587 33.4857C144.687 33.7198 143.766 33.181 143.532 32.282C143.517 32.2242 143.505 32.1662 143.497 32.1083ZM158.022 30.0211C158.012 29.9562 158.006 29.8897 158.004 29.8222C157.973 28.8941 158.703 28.1168 159.632 28.0864C161.542 28.0245 163.474 28.0433 165.373 28.1427C166.302 28.1913 167.013 28.9789 166.967 29.9099C166.919 30.8374 166.126 31.5496 165.197 31.5011C163.392 31.4067 161.557 31.3889 159.742 31.4482C158.88 31.4763 158.148 30.8521 158.022 30.0211ZM172.647 31.1786C172.618 30.9935 172.621 30.8004 172.659 30.6061C172.837 29.6945 173.72 29.0988 174.634 29.2759C176.506 29.6386 178.385 30.0875 180.22 30.6098C181.115 30.8651 181.632 31.7958 181.378 32.6882C181.123 33.5811 180.191 34.0988 179.296 33.8441C177.554 33.3479 175.769 32.9219 173.991 32.5773C173.273 32.4381 172.75 31.8618 172.647 31.1786ZM186.648 35.5724C186.601 35.2665 186.639 34.9443 186.774 34.6405C187.151 33.7916 188.146 33.4086 188.996 33.7848C190.741 34.5574 192.473 35.4142 194.144 36.3317C194.958 36.7797 195.255 37.8015 194.808 38.6157C194.36 39.4292 193.335 39.726 192.52 39.2785C190.933 38.4071 189.288 37.593 187.63 36.8595C187.084 36.6174 186.731 36.1215 186.648 35.5724ZM199.315 42.9724C199.25 42.5434 199.35 42.0898 199.631 41.7149C200.187 40.9703 201.243 40.8173 201.988 41.3729C203.514 42.5095 205.012 43.7275 206.441 44.993C207.137 45.6088 207.201 46.6716 206.583 47.3667C205.966 48.0612 204.902 48.1249 204.205 47.5087C202.847 46.3057 201.423 45.1482 199.973 44.068C199.603 43.7924 199.379 43.3945 199.315 42.9724ZM210.027 52.9848C209.942 52.4292 210.139 51.8442 210.598 51.4524C211.306 50.8494 212.369 50.9332 212.973 51.6393C214.211 53.0868 215.403 54.6056 216.513 56.1533C217.055 56.9088 216.881 57.9589 216.125 58.4998C215.369 59.0406 214.316 58.867 213.774 58.1122C212.719 56.6415 211.587 55.1987 210.411 53.8232C210.199 53.5756 210.072 53.2846 210.027 52.9848ZM223.238 113.309C223.203 113.078 223.216 112.838 223.284 112.599C223.777 110.861 224.201 109.078 224.544 107.3C224.72 106.388 225.603 105.79 226.516 105.966C227.429 106.141 228.028 107.022 227.852 107.935C227.491 109.807 227.045 111.686 226.526 113.516C226.272 114.41 225.34 114.929 224.445 114.675C223.789 114.49 223.334 113.941 223.238 113.309ZM218.244 65.1101C218.139 64.4204 218.475 63.7102 219.128 63.3686C219.953 62.9377 220.971 63.2554 221.402 64.078C222.287 65.7642 223.109 67.5094 223.845 69.2651C224.2 70.1232 223.801 71.1071 222.942 71.4659C222.084 71.8245 221.097 71.4207 220.737 70.564C220.038 68.8965 219.258 67.2394 218.418 65.6381C218.329 65.468 218.271 65.2897 218.244 65.1101ZM225.622 98.8546C225.605 98.7449 225.599 98.6319 225.605 98.5168C225.696 96.7112 225.71 94.8778 225.648 93.0676C225.616 92.1394 226.344 91.3609 227.273 91.329C228.203 91.2974 228.987 92.0225 229.015 92.9517C229.08 94.8564 229.066 96.7856 228.97 98.6855C228.923 99.613 228.132 100.327 227.203 100.28C226.389 100.24 225.74 99.6288 225.622 98.8546ZM223.542 78.7638C223.415 77.9247 223.939 77.1075 224.78 76.8874C225.68 76.6516 226.601 77.1887 226.837 78.087C227.321 79.9262 227.731 81.811 228.056 83.6891C228.059 83.7006 228.06 83.7127 228.062 83.7245C228.199 84.6265 227.589 85.4762 226.684 85.6326C225.767 85.7909 224.895 85.1777 224.737 84.2622C224.428 82.4784 224.038 80.6882 223.578 78.9407C223.563 78.8818 223.551 78.8225 223.542 78.7638Z" fill="#F2F2F2"/>
<path d="M218.997 124.329C218.947 124.002 218.993 123.657 219.151 123.337C219.534 122.559 219.908 121.76 220.262 120.962C220.638 120.113 221.633 119.729 222.484 120.105C223.335 120.481 223.72 121.474 223.342 122.324C222.97 123.163 222.577 124.003 222.174 124.821C221.763 125.655 220.753 125.998 219.919 125.588C219.404 125.335 219.076 124.855 218.997 124.329Z" fill="#F2F2F2"/>
<path d="M180.128 157.838C180.007 157.036 180.482 156.242 181.281 155.986C182.109 155.723 182.944 155.437 183.765 155.138C184.639 154.819 185.606 155.268 185.925 156.14C186.246 157.016 185.795 157.978 184.922 158.297C184.058 158.612 183.178 158.912 182.307 159.19C181.421 159.473 180.473 158.985 180.189 158.1C180.162 158.013 180.142 157.926 180.128 157.838Z" fill="#F2F2F2"/>
<path d="M95.2577 105.344C95.1416 104.579 95.0381 103.809 94.9471 103.035C94.8391 102.113 95.5002 101.277 96.4242 101.169C97.3481 101.061 98.189 101.725 98.2938 102.643C98.5038 104.431 98.7858 106.206 99.1367 107.939C99.3197 108.85 98.7314 109.736 97.8196 109.92C96.9072 110.104 96.0184 109.515 95.8344 108.605C95.6171 107.533 95.4233 106.436 95.2577 105.344ZM98.1886 117.136C98.0696 116.352 98.5213 115.57 99.298 115.299C100.177 114.992 101.137 115.454 101.445 116.331C102.032 118.008 102.699 119.683 103.429 121.309C103.808 122.157 103.429 123.151 102.581 123.531C101.731 123.91 100.735 123.531 100.354 122.683C99.5859 120.971 98.8831 119.207 98.2642 117.441C98.2289 117.34 98.2041 117.238 98.1886 117.136ZM96.3799 79.8683C96.3479 79.6572 96.3563 79.4367 96.4101 79.2167C96.8572 77.3962 97.3877 75.5727 97.9868 73.7973C98.2838 72.9173 99.239 72.4443 100.12 72.7408C101.003 73.0373 101.477 73.9902 101.179 74.871C100.611 76.5569 100.107 78.2883 99.6822 80.0173C99.4611 80.9194 98.5485 81.4712 97.6452 81.2501C96.9622 81.083 96.4791 80.5219 96.3799 79.8683ZM104.433 130.125C104.335 129.482 104.618 128.813 105.206 128.446C105.995 127.954 107.034 128.194 107.527 128.982C108.469 130.488 109.49 131.975 110.559 133.402C111.117 134.145 110.965 135.199 110.22 135.756C109.475 136.312 108.42 136.16 107.862 135.417C106.736 133.915 105.662 132.349 104.67 130.763C104.544 130.563 104.466 130.345 104.433 130.125ZM113.381 141.432C113.303 140.918 113.464 140.376 113.863 139.982C114.525 139.33 115.592 139.337 116.245 139.998C117.498 141.266 118.82 142.496 120.172 143.654C120.879 144.257 120.961 145.318 120.355 146.025C119.749 146.73 118.686 146.811 117.979 146.207C116.556 144.988 115.166 143.694 113.847 142.36C113.587 142.098 113.432 141.771 113.381 141.432ZM124.585 150.523C124.526 150.132 124.604 149.719 124.836 149.361C125.339 148.58 126.382 148.355 127.164 148.859C128.665 149.825 130.222 150.738 131.795 151.573C132.615 152.01 132.928 153.027 132.49 153.848C132.052 154.668 131.033 154.978 130.211 154.542C128.557 153.663 126.917 152.702 125.338 151.685C124.915 151.413 124.655 150.984 124.585 150.523ZM137.508 156.958C137.467 156.687 137.492 156.402 137.593 156.127C137.914 155.255 138.882 154.809 139.755 155.129C141.43 155.744 143.15 156.294 144.868 156.765C145.765 157.01 146.293 157.937 146.048 158.831C145.802 159.727 144.875 160.253 143.978 160.008C142.168 159.512 140.356 158.933 138.593 158.286C137.995 158.066 137.598 157.545 137.508 156.958ZM151.537 160.405C151.514 160.252 151.512 160.094 151.533 159.934C151.653 159.013 152.499 158.364 153.421 158.485C155.186 158.715 156.985 158.873 158.767 158.955C159.697 158.997 160.415 159.786 160.373 160.711C160.331 161.639 159.542 162.357 158.613 162.314C156.736 162.229 154.843 162.062 152.985 161.819C152.223 161.72 151.646 161.127 151.537 160.405ZM165.971 160.691C165.966 160.657 165.962 160.622 165.959 160.587C165.876 159.663 166.56 158.845 167.486 158.763C168.794 158.645 170.114 158.487 171.41 158.291C171.879 158.22 172.346 158.143 172.811 158.063C173.728 157.904 174.6 158.517 174.759 159.432C174.939 160.355 174.305 161.217 173.389 161.376C172.899 161.461 172.408 161.541 171.914 161.616C170.551 161.822 169.162 161.989 167.787 162.112C166.895 162.192 166.104 161.563 165.971 160.691Z" fill="#F2F2F2"/>
<path d="M101.37 66.2938C101.319 65.9632 101.367 65.6149 101.527 65.2933C101.934 64.4784 102.366 63.6568 102.81 62.8511C103.259 62.0375 104.284 61.7414 105.098 62.1895C105.913 62.6379 106.211 63.6595 105.761 64.4736C105.339 65.239 104.929 66.0195 104.543 66.793C104.128 67.624 103.117 67.9624 102.284 67.5482C101.774 67.2942 101.449 66.8165 101.37 66.2938Z" fill="#F2F2F2"/>
<path d="M121.028 65.6148C120.803 65.8633 120.76 66.2273 120.922 66.521L125.539 74.9029C123.37 78.8104 121.81 83.0912 120.982 87.6136L112.095 91.1723C111.783 91.2971 111.585 91.6057 111.602 91.9405L112.169 103.4C112.186 103.735 112.414 104.023 112.736 104.116L121.932 106.782C123.203 111.201 125.178 115.307 127.722 118.982L123.956 127.778C123.824 128.086 123.902 128.444 124.151 128.669L132.67 136.372C132.919 136.597 133.284 136.64 133.578 136.478L141.974 131.869C145.889 134.034 150.177 135.591 154.707 136.418L158.273 145.29C158.398 145.601 158.707 145.799 159.042 145.782L170.522 145.216C170.857 145.199 171.145 144.972 171.239 144.65L173.91 135.47C178.336 134.201 182.45 132.23 186.131 129.69L194.942 133.449C195.251 133.581 195.61 133.503 195.835 133.254L203.551 124.75C203.777 124.502 203.819 124.138 203.658 123.844L199.04 115.462C201.209 111.555 202.769 107.274 203.597 102.752L212.485 99.1927C212.796 99.0679 212.994 98.7595 212.978 98.4246L212.41 86.9647C212.394 86.6298 212.166 86.3424 211.843 86.2489L202.647 83.5827C201.377 79.1639 199.402 75.0576 196.857 71.3827L200.623 62.5871C200.756 62.2788 200.677 61.9207 200.428 61.6956L191.909 53.9931C191.66 53.768 191.296 53.7254 191.001 53.8868L182.605 58.4958C178.691 56.3309 174.402 54.7737 169.872 53.9476L166.307 45.0752C166.182 44.7642 165.873 44.5663 165.537 44.583L154.058 45.1496C153.722 45.1662 153.434 45.3933 153.34 45.7153L150.67 54.8953C146.243 56.1637 142.13 58.1356 138.448 60.6753L129.637 56.9158C129.328 56.7839 128.97 56.8622 128.744 57.1107L121.028 65.6148Z" fill="#F2F2F2"/>
<path d="M150.865 96.9029C150.021 91.3444 153.369 85.8451 158.912 84.1535C165.005 82.2943 171.476 85.7295 173.338 91.811C174.241 94.7573 173.94 97.8779 172.491 100.597C171.042 103.317 168.619 105.311 165.668 106.212C159.575 108.071 153.104 104.636 151.241 98.5544C151.073 98.0062 150.948 97.454 150.865 96.9029ZM171.052 93.8764C170.987 93.4471 170.891 93.0204 170.761 92.5975C169.333 87.9347 164.371 85.3011 159.7 86.7262C155.029 88.1518 152.389 93.1043 153.819 97.768C155.246 102.431 160.209 105.064 164.879 103.639C167.142 102.949 169 101.42 170.111 99.3343C171.014 97.6392 171.335 95.7406 171.052 93.8764Z" fill="#666668"/>
<path d="M134.402 99.6321C134.257 98.6775 134.159 97.71 134.11 96.7324C134.095 96.4248 134.085 96.1168 134.079 95.8086C134.053 94.2895 134.148 92.7708 134.363 91.2758C134.365 91.2554 134.368 91.235 134.371 91.2147C134.38 91.1569 134.388 91.0992 134.397 91.0413C134.414 90.9288 134.433 90.8165 134.451 90.7043C134.499 90.4094 134.733 90.191 135.014 90.1481C135.082 90.1378 135.153 90.138 135.225 90.1497C135.592 90.2098 135.84 90.5564 135.78 90.9224C135.47 92.8086 135.361 94.7408 135.457 96.6655C135.929 106.226 141.353 114.393 149.123 118.814C153.445 121.274 158.494 122.575 163.82 122.312C164.754 122.266 165.679 122.173 166.591 122.035C172.73 121.106 178.316 118.122 182.54 113.466C187.392 108.119 189.868 101.204 189.511 93.9979C188.772 79.1146 176.05 67.6159 161.147 68.3516C160.229 68.3969 159.315 68.4885 158.412 68.6255C154.496 69.2184 150.754 70.66 147.459 72.86C147.373 72.9168 147.28 72.9518 147.185 72.9659C146.935 73.0036 146.674 72.8987 146.524 72.6748C146.318 72.3652 146.399 71.9483 146.71 71.7416C150.169 69.4319 154.098 67.9179 158.209 67.2955C159.158 67.1517 160.116 67.0556 161.081 67.0077C176.727 66.2353 190.084 78.3179 190.857 93.9311C191.232 101.497 188.633 108.755 183.539 114.369C179.104 119.257 173.24 122.389 166.796 123.365C165.838 123.51 164.867 123.607 163.887 123.656C156.308 124.029 149.037 121.435 143.413 116.35C138.516 111.922 135.378 106.067 134.402 99.6321Z" fill="#666668"/>
<path d="M59.7112 32.6723C59.5069 32.2815 59.5742 31.7886 59.9087 31.4674C60.5327 30.8675 61.1835 30.2783 61.8431 29.7164C62.2717 29.3513 62.9153 29.4021 63.2818 29.83C63.65 30.2572 63.5966 30.901 63.1681 31.2663C62.5396 31.8017 61.9193 32.3633 61.3235 32.9357C60.9182 33.3257 60.272 33.3133 59.8805 32.9084C59.8114 32.8361 59.7552 32.7565 59.7112 32.6723Z" fill="#F2F2F2"/>
<path d="M65.8428 27.7765C65.6036 27.3188 65.7456 26.7453 66.1865 26.4557C67.4322 25.6362 68.7344 24.8715 70.0561 24.1831C70.3344 24.0381 70.6153 23.8958 70.8984 23.7556C71.4042 23.5061 72.0111 23.7489 72.2666 24.2162C72.5167 24.7204 72.3099 25.3315 71.8055 25.5813C71.5348 25.7151 71.2662 25.8509 71.0003 25.9895C69.7394 26.6462 68.4975 27.3756 67.3094 28.1566C66.8385 28.4664 66.2061 28.3363 65.8956 27.8668C65.8766 27.8369 65.8586 27.807 65.8428 27.7765ZM75.3389 23.0828C75.3165 23.0401 75.2963 22.995 75.2798 22.9486C75.0932 22.4174 75.3728 21.8358 75.9046 21.6491C77.6105 21.0501 79.369 20.5517 81.1299 20.1679C81.6808 20.0476 82.2243 20.3992 82.3447 20.9458C82.4648 21.496 82.1164 22.0381 81.5655 22.1584C79.8853 22.5247 78.2082 23.0004 76.5811 23.5713C76.0966 23.7412 75.5698 23.5247 75.3389 23.0828ZM85.6915 20.828C85.6316 20.7134 85.5929 20.5855 85.58 20.449C85.5289 19.8888 85.9433 19.3935 86.5045 19.3425C88.3027 19.1802 90.1312 19.1277 91.9379 19.1888C92.502 19.2075 92.9421 19.6774 92.9233 20.2415C92.9044 20.8034 92.4322 21.2441 91.8693 21.2252C90.1461 21.1674 88.4035 21.2165 86.6885 21.372C86.2643 21.41 85.8771 21.183 85.6915 20.828ZM96.2831 21.1829C96.1853 20.9959 96.1452 20.7773 96.18 20.5533C96.2684 19.9978 96.7916 19.6181 97.3481 19.7063C99.135 19.9892 100.919 20.3852 102.652 20.8839C103.194 21.0402 103.505 21.6057 103.35 22.1451C103.194 22.6857 102.629 22.9975 102.086 22.8419C100.435 22.3662 98.732 21.9884 97.0285 21.7187C96.6964 21.6662 96.4276 21.4594 96.2831 21.1829ZM106.466 24.1094C106.33 23.8482 106.307 23.53 106.432 23.2377C106.653 22.7205 107.252 22.4801 107.771 22.7003C109.433 23.4082 111.067 24.2245 112.627 25.1277C113.116 25.4094 113.281 26.0331 112.998 26.5199C112.715 27.0067 112.091 27.1727 111.604 26.8905C110.115 26.0289 108.556 25.2499 106.97 24.5751C106.745 24.4788 106.572 24.3109 106.466 24.1094ZM115.628 29.4137C115.451 29.0754 115.473 28.6509 115.72 28.3263C116.06 27.8782 116.7 27.7907 117.149 28.13C118.589 29.2194 119.974 30.409 121.265 31.6656C121.668 32.0609 121.676 32.7038 121.283 33.1067C120.89 33.5094 120.243 33.5175 119.84 33.1248C118.609 31.9263 117.289 30.7926 115.916 29.7541C115.792 29.66 115.696 29.5429 115.628 29.4137ZM123.211 36.7912C122.99 36.3679 123.091 35.8339 123.479 35.5251C123.919 35.1739 124.561 35.2456 124.913 35.6849C126.037 37.0891 127.088 38.5822 128.036 40.1229C128.323 40.6082 128.18 41.2307 127.699 41.5245C127.219 41.819 126.591 41.6688 126.296 41.1897C125.392 39.7194 124.39 38.2954 123.319 36.9566C123.277 36.904 123.241 36.8485 123.211 36.7912ZM130.655 50.7543C130.628 50.7023 130.605 50.6466 130.586 50.5881C130.139 49.1714 129.607 47.7545 129.003 46.376C128.913 46.1667 128.822 45.9622 128.728 45.7595C128.494 45.2473 128.719 44.6432 129.232 44.4092C129.745 44.1738 130.367 44.3954 130.585 44.9113C130.683 45.1281 130.781 45.3449 130.876 45.5645C131.506 47.0048 132.064 48.4903 132.533 49.976C132.702 50.5129 132.404 51.0845 131.866 51.2536C131.387 51.4043 130.88 51.1843 130.655 50.7543Z" fill="#F2F2F2"/>
<path d="M51.6854 84.0587C51.4277 83.5657 51.6147 82.9555 52.1069 82.6907C52.6027 82.424 53.2221 82.6092 53.4891 83.1047C54.2934 84.5963 55.1957 86.0514 56.1711 87.4297C56.4901 87.8892 56.3874 88.5251 55.9265 88.8498C55.4656 89.1746 54.8291 89.0646 54.5038 88.6055C53.4817 87.1596 52.535 85.6345 51.6919 84.0711C51.6898 84.0671 51.6874 84.0627 51.6854 84.0587ZM49.4911 79.3294C49.474 79.2967 49.459 79.2636 49.4453 79.2288C48.7959 77.5779 48.2409 75.8708 47.7948 74.155C47.6539 73.61 47.9806 73.0545 48.5262 72.9134C49.0725 72.7713 49.6287 73.1021 49.7709 73.6431C50.1962 75.2804 50.7261 76.9093 51.3452 78.4849C51.5513 79.0083 51.2926 79.5997 50.7683 79.805C50.2774 79.9972 49.729 79.7846 49.4911 79.3294ZM57.6994 92.5536C57.4901 92.1531 57.5674 91.6472 57.918 91.3288C58.3342 90.9509 58.9796 90.9812 59.359 91.3974C60.502 92.6509 61.73 93.8454 63.0111 94.9477C63.4372 95.3177 63.4855 95.9585 63.1168 96.3846C62.7493 96.8105 62.1042 96.8582 61.6773 96.4908C60.3347 95.3351 59.0471 94.0825 57.8498 92.7682C57.789 92.7016 57.739 92.6295 57.6994 92.5536ZM46.8796 69.2531C46.8259 69.1505 46.7889 69.0367 46.7725 68.9151C46.5398 67.1557 46.4138 65.3639 46.3985 63.5905C46.3933 63.0278 46.8464 62.5678 47.4102 62.5625C47.9723 62.5582 48.4334 63.0103 48.4393 63.5723C48.4544 65.2634 48.5747 66.971 48.7962 68.6487C48.8697 69.2063 48.4765 69.7186 47.9178 69.7919C47.4811 69.8493 47.0723 69.6218 46.8796 69.2531ZM65.5915 99.3446C65.4244 99.0249 65.4328 98.626 65.6478 98.3059C65.9617 97.8377 66.5955 97.7128 67.0638 98.0256C68.4706 98.9666 69.9499 99.831 71.462 100.595C71.9659 100.849 72.1662 101.462 71.9114 101.964C71.6566 102.466 71.0423 102.667 70.5395 102.413C68.9547 101.611 67.4032 100.705 65.9278 99.7192C65.7807 99.6209 65.6678 99.4906 65.5915 99.3446ZM74.8854 104.048C74.7575 103.803 74.7292 103.508 74.8305 103.228C75.0228 102.7 75.6083 102.426 76.138 102.618C77.7341 103.196 79.3789 103.683 81.0261 104.064C81.576 104.191 81.9176 104.739 81.7899 105.287C81.6628 105.835 81.1148 106.176 80.5661 106.049C78.8386 105.649 77.1142 105.139 75.4418 104.534C75.1924 104.443 74.9994 104.266 74.8854 104.048ZM85.0415 106.393C84.9516 106.221 84.9093 106.022 84.9323 105.814C84.9917 105.255 85.4948 104.849 86.0555 104.909C87.743 105.09 89.4566 105.168 91.148 105.142C91.7105 105.134 92.1754 105.582 92.1837 106.145C92.1923 106.707 91.7429 107.17 91.1788 107.179C89.4055 107.206 87.6081 107.125 85.8378 106.936C85.4852 106.898 85.194 106.685 85.0415 106.393Z" fill="#F2F2F2"/>
<path d="M46.7901 58.7973C46.699 58.6231 46.6575 58.4209 46.6815 58.2109C46.7806 57.3445 46.9063 56.4774 47.0539 55.6329C47.1511 55.079 47.6798 54.7076 48.2351 54.8044C48.7889 54.9026 49.1608 55.4293 49.065 55.9836C48.9238 56.7887 48.8043 57.6163 48.7092 58.4429C48.6452 59.002 48.1388 59.4032 47.5792 59.339C47.2299 59.2988 46.9416 59.0871 46.7901 58.7973Z" fill="#F2F2F2"/>
<path d="M58.8706 53.4622C58.7836 53.6642 58.8347 53.8994 58.9979 54.0473L63.6532 58.2693C63.1408 61.1563 63.0858 64.1459 63.5371 67.1295L58.7788 71.229C58.6118 71.3728 58.5547 71.6064 58.6365 71.8108L61.4345 78.8048C61.5164 79.0092 61.719 79.1392 61.9392 79.1288L68.2174 78.8282C69.9492 81.3014 72.0519 83.4306 74.4158 85.171L73.9547 91.4327C73.9386 91.6522 74.0637 91.8577 74.2663 91.9446L81.1988 94.9149C81.4015 95.0017 81.637 94.9506 81.7852 94.7877L86.0144 90.1406C88.9066 90.6523 91.9014 90.7071 94.8902 90.2565L98.9969 95.0067C99.141 95.1733 99.375 95.2303 99.5798 95.1487L106.586 92.3555C106.791 92.2739 106.921 92.0716 106.91 91.8518L106.609 85.5845C109.087 83.8557 111.22 81.7567 112.963 79.397L119.236 79.8572C119.456 79.8733 119.662 79.7484 119.749 79.5463L122.724 72.6257C122.811 72.4235 122.76 72.1885 122.597 72.0405L117.942 67.8186C118.454 64.9316 118.509 61.9421 118.058 58.9584L122.816 54.8588C122.983 54.715 123.04 54.4815 122.958 54.277L120.16 47.283C120.079 47.0786 119.876 46.9486 119.656 46.9591L113.377 47.2596C111.646 44.7864 109.543 42.6571 107.179 40.9167L107.64 34.6552C107.656 34.4357 107.531 34.2301 107.329 34.1433L100.396 31.1729C100.193 31.0862 99.958 31.1372 99.8097 31.3001L95.5804 35.9471C92.6883 35.4355 89.6935 35.3808 86.7046 35.8313L82.5979 31.0811C82.454 30.9146 82.2199 30.8574 82.0151 30.9393L75.009 33.7323C74.8042 33.814 74.6739 34.0163 74.6845 34.2361L74.9855 40.5035C72.508 42.2323 70.3751 44.3313 68.6315 46.6909L62.3588 46.2307C62.1389 46.2146 61.9332 46.3395 61.846 46.5417L58.8706 53.4622Z" fill="#F2F2F2"/>
<path d="M83.9449 66.5939C83.1833 65.1369 82.9103 63.4813 83.1741 61.829C83.499 59.7964 84.5975 58.0118 86.2672 56.8038C89.7121 54.3103 94.548 55.08 97.0473 58.5198C99.5427 61.9691 98.7738 66.7887 95.3277 69.2821C93.6582 70.4906 91.6172 70.9774 89.5816 70.6529C87.5451 70.329 85.7569 69.2326 84.547 67.5652C84.3212 67.2536 84.1199 66.9287 83.9449 66.5939ZM95.8335 60.4234C95.7065 60.1804 95.5604 59.9441 95.3949 59.7154C93.5565 57.1854 89.9995 56.6192 87.4645 58.4536C86.2371 59.342 85.4282 60.655 85.1899 62.1497C84.9511 63.6455 85.311 65.1429 86.1997 66.37C87.0899 67.5957 88.4053 68.4025 89.9026 68.641C91.401 68.8794 92.9021 68.5213 94.1305 67.6323C96.4362 65.9638 97.1141 62.8733 95.8335 60.4234Z" fill="#666668"/>
<path d="M73.9116 71.9872C73.6128 71.4157 73.341 70.8244 73.0959 70.2137C72.6102 69.0006 72.2476 67.7368 72.0179 66.4544C72.008 66.3967 71.9981 66.339 71.9882 66.2813C71.9122 65.835 72.1396 65.4074 72.521 65.2082C72.6138 65.1599 72.716 65.1251 72.8243 65.1068C73.3799 65.0127 73.9044 65.3881 74.0003 65.9414C74.2033 67.1408 74.5372 68.3235 74.9914 69.4571L74.9916 69.4575C75.0163 69.5198 75.0422 69.5821 75.0675 69.6435C76.1669 72.3167 77.8921 74.6151 80.0797 76.3917C81.2671 77.3558 82.5922 78.1661 84.0294 78.7973C84.0411 78.8024 84.0527 78.8075 84.0644 78.8127C84.1006 78.828 84.1358 78.8439 84.1718 78.8589C88.3897 80.6657 93.0601 80.7255 97.3225 79.026C97.8743 78.8065 98.4102 78.5604 98.9297 78.2899C102.425 76.4687 105.164 73.5273 106.74 69.8616C108.55 65.651 108.609 60.9891 106.907 56.7345C105.204 52.4831 101.944 49.141 97.7267 47.3332C93.5089 45.5263 88.8384 45.4666 84.576 47.1661C84.0335 47.3819 83.504 47.6252 82.9898 47.893C80.7599 49.0551 78.8101 50.6906 77.2854 52.6899C77.1913 52.8131 77.075 52.909 76.9458 52.9757C76.6065 53.1525 76.1802 53.1304 75.8554 52.8832C75.408 52.5412 75.3197 51.9036 75.662 51.455C77.3682 49.218 79.55 47.3875 82.0438 46.0875C82.6198 45.7874 83.2118 45.5155 83.8184 45.2737C88.5879 43.3724 93.8128 43.4389 98.5321 45.4611C103.25 47.4831 106.9 51.2142 108.802 55.9784C110.707 60.7389 110.641 65.9544 108.615 70.6653C106.852 74.7665 103.788 78.057 99.8773 80.0945C99.2968 80.3968 98.6967 80.6724 98.08 80.9184C88.8468 84.5987 78.4154 80.6037 73.9116 71.9872Z" fill="#666668"/>
<path d="M239.439 218.915C239.439 218.915 240.246 220.185 240.449 223.74C240.468 224.071 240.205 224.353 239.873 224.353H233.562C233.308 224.353 233.127 224.105 233.208 223.865C233.578 222.772 234.696 220.108 237.191 218.586L239.439 218.915Z" fill="url(#paint1_linear_4861_121083)"/>
<path d="M239.713 216.507L239.357 219.495C239.326 219.752 239.123 219.959 238.865 219.988C238.52 220.028 238.018 220.056 237.531 219.976C237.087 219.903 236.769 219.509 236.769 219.06V216.176L239.713 216.507Z" fill="url(#paint2_linear_4861_121083)"/>
<path d="M223.825 218.586C223.825 218.586 225.033 220.46 225.007 223.033C225.001 223.639 224.493 224.121 223.886 224.121H214.085C213.626 224.121 213.439 223.533 213.815 223.269C215.67 221.969 219.315 219.541 221.952 218.586H223.825V218.586Z" fill="url(#paint3_linear_4861_121083)"/>
<path d="M224.835 215.359L224.074 219.049C223.989 219.462 223.584 219.739 223.172 219.647C222.922 219.591 222.626 219.485 222.31 219.288C222.01 219.1 221.858 218.744 221.92 218.396L222.707 213.926L224.835 215.359Z" fill="url(#paint4_linear_4861_121083)"/>
<path d="M238.315 164.059C238.315 164.059 240.962 166.388 241.461 169.191C241.959 171.994 240.049 217.552 240.049 217.552C240.049 217.552 237.402 217.992 236.037 217.166C236.037 217.166 234.419 187.6 233.189 180.767C233.189 180.767 226.737 211.395 224.95 216.929C224.95 216.929 222.399 217.238 221.577 216.754C221.577 216.754 223.267 177.053 225.391 169.994L238.315 164.059Z" fill="#09005D"/>
<path d="M212.469 132.609C223.278 135.47 225.248 138.614 225.248 138.614L217.367 144.772C217.367 144.772 207.124 140.903 201.761 132.589C203.674 131.593 205.221 130.291 206.294 129.23C207.918 130.698 209.948 131.942 212.469 132.609Z" fill="#3ECC5F"/>
<path d="M201.514 111.385C201.648 111.055 202.136 111.125 202.17 111.48L202.493 114.81C202.555 115.453 202.418 116.1 202.099 116.663L201.037 118.157C200.608 118.917 200.524 119.822 200.809 120.647C201.492 122.621 203.113 126.358 206.293 129.232C205.221 130.293 203.674 131.595 201.76 132.59C199.792 129.54 198.48 125.892 198.573 121.616C198.031 121.213 197.828 120.496 198.079 119.87L201.514 111.385Z" fill="url(#paint5_linear_4861_121083)"/>
<path d="M208.524 142.626C212.447 138.406 219.919 136.5 224.246 135.717C226.141 135.374 228.009 136.427 228.681 138.229C230.628 143.453 235.923 157.046 236.949 159.382C237.791 161.298 238.671 163.17 239.229 164.34C239.563 165.04 239.271 165.876 238.572 166.212C234.933 167.964 228.383 169.945 225.728 170.718C225.144 170.888 224.562 170.451 224.562 169.843C224.562 169.328 224.422 168.823 224.156 168.381L214.1 151.652C207.832 158.59 202.343 159.224 198.126 157.706C198.835 155.518 199.299 153.327 199.522 151.131C205.751 150.066 208.524 142.626 208.524 142.626Z" fill="#3ECC5F"/>
<path d="M189.225 149.965L190.349 148.469C193.988 150.964 197.031 151.555 199.521 151.129C199.299 153.325 198.835 155.517 198.126 157.704C192.571 155.704 189.225 149.965 189.225 149.965Z" fill="url(#paint6_linear_4861_121083)"/>
<path d="M190.018 149.992L183.684 150.238L177.853 146.987C178.69 146.463 183.423 147.534 183.423 147.534C183.423 147.534 188.371 146.787 189.711 146.785C190.823 146.784 190.664 148.38 190.578 148.922C190.561 149.032 190.546 149.098 190.546 149.098L190.018 149.992Z" fill="url(#paint7_linear_4861_121083)"/>
<path d="M218.295 127.965L221.637 136.105C221.637 136.105 217.797 138.758 214.708 138.506L213.04 131.186L218.295 127.965Z" fill="url(#paint8_linear_4861_121083)"/>
<path d="M212.65 122.42C212.573 122.528 210.232 130.97 210.232 130.97L215.09 132.202L218.499 124.53C218.499 124.53 213.931 120.607 212.65 122.42Z" fill="url(#paint9_linear_4861_121083)"/>
<path d="M216.67 125.693L215.192 129.873C215.173 129.926 215.148 129.976 215.115 130.022C214.914 130.307 214.152 131.235 213.248 130.399C212.428 129.64 211.668 128.96 210.967 128.837C210.652 128.781 210.347 128.973 210.261 129.281C210.049 130.048 209.602 131.785 209.444 133.354C209.413 133.672 209.633 133.96 209.948 134.02C210.896 134.2 212.908 134.523 214.587 134.405C214.815 134.389 215.015 134.252 215.11 134.045C215.572 133.036 216.99 129.973 217.518 129.181C218.013 128.437 219.226 128.458 219.735 128.503C219.902 128.517 220.066 128.464 220.192 128.353C220.637 127.964 221.484 126.969 220.292 125.779C220.043 125.53 220.05 125.128 220.307 124.886C220.819 124.406 221.366 123.554 220.513 122.497C219.647 121.423 218.502 121.594 217.801 121.849C217.518 121.952 217.209 121.833 217.055 121.574C216.967 121.426 216.814 121.315 216.549 121.338C216.191 121.368 215.89 121.071 215.897 120.712C215.909 120.024 215.662 119.155 214.467 118.783C212.345 118.124 211.022 120.17 210.89 121.697C210.759 123.224 213.101 123.808 214.477 123.706C215.524 123.627 216.301 124.663 216.614 125.164C216.713 125.323 216.732 125.517 216.67 125.693Z" fill="#1F1F20"/>
<path d="M216.965 130.695C216.965 130.695 217.308 128.045 218.412 127.915C219.517 127.785 220.592 128.691 219.494 130.179C218.128 132.03 216.965 130.695 216.965 130.695Z" fill="url(#paint10_linear_4861_121083)"/>
<path d="M111.555 223.908H31.834V182.494C31.834 180.431 33.5097 178.758 35.5768 178.758H107.812C109.879 178.758 111.555 180.431 111.555 182.494L111.555 223.908Z" fill="#3F3D56"/>
<path d="M69.2732 80.4023C69.2732 80.4023 67.012 81.5002 66.5964 82.7614C66.2628 83.7734 63.7627 83.9038 63.5157 85.894C63.3881 86.9216 62.6264 87.7444 61.6011 87.9013C59.0477 88.2921 55.1125 89.6157 54.4829 94.0414C54.0023 97.4195 55.7274 98.7004 57.5378 99.1438C58.8676 99.4694 59.7512 100.76 59.4823 102.101C59.2243 103.386 59.609 104.872 61.8397 106.047C66.8387 108.68 71.8309 99.8089 71.8309 99.8089L72.8541 84.3191L69.2732 80.4023Z" fill="black"/>
<path d="M48.7253 177.532L48.4019 180.187C48.3405 180.691 47.9433 181.089 47.4384 181.147C46.5859 181.244 45.2179 181.343 43.8793 181.202C43.2918 181.14 42.9104 180.546 43.0894 179.984C43.4157 178.959 44.0126 177.421 44.8733 176.516H47.8233C48.3686 176.516 48.7912 176.992 48.7253 177.532Z" fill="url(#paint11_linear_4861_121083)"/>
<path d="M71.8312 146.434L72.3292 149.357C72.3292 149.357 70.6618 166.218 70.3651 172.962C70.3186 174.019 70.5927 175.064 71.1486 175.965L74.0479 180.665L66.6793 176.324L66.5325 175.427L67.7388 173.771L66.1588 154.884C66.066 153.774 66.2953 152.661 66.8195 151.679L68.3436 148.82L71.8312 146.434Z" fill="url(#paint12_linear_4861_121083)"/>
<path d="M74.5327 181.346H72.1812C71.7412 181.346 71.326 181.144 71.0576 180.796C70.3245 179.845 68.8057 177.99 68.0794 177.942C67.1018 177.877 67.2269 181.346 67.2269 181.346H66.6789L65.9847 177.035C65.81 175.95 66.3504 174.876 67.3262 174.367C67.3262 174.367 67.5497 176.017 68.7615 176.747C69.9733 177.477 73.6928 180.09 73.6928 180.09C73.6928 180.09 74.1483 180.025 74.6484 180.116C75.3903 180.249 75.2868 181.346 74.5327 181.346Z" fill="url(#paint13_linear_4861_121083)"/>
<path d="M61.7384 147.821C61.7384 147.821 51.9701 166.318 50.4173 170.541C48.8645 174.764 48.3206 178.287 48.2997 178.621C48.2672 179.142 47.6177 179.642 45.8272 179.642C44.9033 179.642 44.4507 179.272 44.2291 178.914C44.0401 178.609 44.0304 178.227 44.1897 177.905C44.7547 176.764 46.5479 173.116 47.212 171.461C48.0049 169.486 49.7105 160.533 50.6458 157.42C51.5812 154.307 52.6386 150.931 56.712 147.821C56.712 147.821 59.5083 145.087 61.7384 147.821Z" fill="url(#paint14_linear_4861_121083)"/>
<path d="M67.9085 117.514C70.4282 106.855 64.0449 100.827 64.0449 100.827C68.0726 96.9671 75.4112 95.2109 75.4112 95.2109C75.4112 95.2109 82.4137 100.322 81.583 104.322C81.0961 106.666 76.6609 118.365 76.6609 118.365C76.6609 118.365 72.5597 120.302 67.9085 117.514Z" fill="#3ECC5F"/>
<path d="M62.3219 122.788C63.3473 119.705 67.9086 117.512 67.9086 117.512C72.5599 120.3 76.661 118.363 76.661 118.363C76.661 118.363 77.5808 121.872 76.946 125.134C76.3111 128.395 72.3284 149.355 72.3284 149.355C66.0529 150.625 56.4014 148.078 56.4014 148.078C60.3986 140.994 61.2964 125.872 62.3219 122.788Z" fill="#3ECC5F"/>
<path d="M70.8335 88.1649L68.7848 97.3508C68.5888 98.1599 69.3276 98.0275 70.147 97.8733C71.489 97.6207 73.2187 97.1005 73.7969 96.0581C73.8557 95.9521 73.8852 95.8321 73.9017 95.7119L74.7818 89.3422C74.8517 88.8368 74.578 88.3464 74.1108 88.1396L72.4124 87.3879C71.7586 87.0984 71.0017 87.4708 70.8335 88.1649Z" fill="url(#paint15_linear_4861_121083)"/>
<path d="M73.2375 79.422C73.2375 79.422 75.6637 80.4447 77.3134 83.9447C78.9632 87.4445 77.7312 89.0605 76.1837 89.2824C74.6363 89.5042 72.322 89.4704 69.8741 87.2096C67.4263 84.9486 70.0834 78.2098 73.2375 79.422Z" fill="url(#paint16_linear_4861_121083)"/>
<path d="M71.5197 85.3395C71.5197 85.3395 69.6892 80.219 74.2369 80.1585L75.307 80.9052C75.307 80.9052 76.9757 78.0662 74.2369 76.711C71.4982 75.3559 68.2929 76.4752 67.1273 80.1585C65.9618 83.8418 65.7628 86.3075 67.7018 88.0698C69.6408 89.832 70.4399 87.8338 70.4399 87.8338C70.4399 87.8338 69.384 86.1855 69.8139 85.3037C70.2437 84.4219 71.2352 85.4861 71.2352 85.4861L71.5197 85.3395Z" fill="black"/>
<path d="M71.0097 85.9087C71.0097 85.9087 70.0842 83.271 68.8495 84.3214C67.6148 85.3718 69.853 86.7579 70.7291 87.2068L71.0097 85.9087Z" fill="url(#paint17_linear_4861_121083)"/>
<path d="M65.1953 105.721C69.951 107.939 88.0937 114.621 93.7769 90.7074C93.7769 90.7074 93.8159 89.9917 93.3459 89.1376C93.1086 88.7063 92.8556 86.976 92.738 86.088C92.7002 85.8025 92.4235 85.6148 92.1428 85.6814C91.9229 85.7336 91.7448 85.894 91.6702 86.107L90.3035 90.0086C90.3315 90.6793 90.8446 91.2296 91.5126 91.3058C91.9388 91.3544 92.2136 91.7799 92.0778 92.1861C86.5162 108.807 64.7119 100.089 64.4617 100.364C64.0496 100.817 63.6534 101.484 63.4757 102.252C63.1494 103.662 63.8814 105.108 65.1953 105.721Z" fill="url(#paint18_linear_4861_121083)"/>
<defs>
<linearGradient id="paint0_linear_4861_121083" x1="85.6267" y1="87.6255" x2="96.5833" y2="102.231" gradientUnits="userSpaceOnUse">
<stop stop-color="#FEBBBA"/>
<stop offset="1" stop-color="#FF928E"/>
</linearGradient>
<linearGradient id="paint1_linear_4861_121083" x1="240.45" y1="221.47" x2="233.189" y2="221.47" gradientUnits="userSpaceOnUse">
<stop stop-color="#09005D"/>
<stop offset="1" stop-color="#1A0F91"/>
</linearGradient>
<linearGradient id="paint2_linear_4861_121083" x1="239.713" y1="218.102" x2="236.769" y2="218.102" gradientUnits="userSpaceOnUse">
<stop stop-color="#FEBBBA"/>
<stop offset="1" stop-color="#FF928E"/>
</linearGradient>
<linearGradient id="paint3_linear_4861_121083" x1="225.008" y1="221.354" x2="213.614" y2="221.354" gradientUnits="userSpaceOnUse">
<stop stop-color="#09005D"/>
<stop offset="1" stop-color="#1A0F91"/>
</linearGradient>
<linearGradient id="paint4_linear_4861_121083" x1="224.835" y1="216.795" x2="221.906" y2="216.795" gradientUnits="userSpaceOnUse">
<stop stop-color="#FEBBBA"/>
<stop offset="1" stop-color="#FF928E"/>
</linearGradient>
<linearGradient id="paint5_linear_4861_121083" x1="208.117" y1="124.117" x2="197.867" y2="120.462" gradientUnits="userSpaceOnUse">
<stop stop-color="#FEBBBA"/>
<stop offset="1" stop-color="#FF928E"/>
</linearGradient>
<linearGradient id="paint6_linear_4861_121083" x1="180.592" y1="133.555" x2="204.061" y2="162.804" gradientUnits="userSpaceOnUse">
<stop stop-color="#FEBBBA"/>
<stop offset="1" stop-color="#FF928E"/>
</linearGradient>
<linearGradient id="paint7_linear_4861_121083" x1="176.134" y1="137.133" x2="199.603" y2="166.381" gradientUnits="userSpaceOnUse">
<stop stop-color="#FEBBBA"/>
<stop offset="1" stop-color="#FF928E"/>
</linearGradient>
<linearGradient id="paint8_linear_4861_121083" x1="207.052" y1="115.903" x2="229.768" y2="157.716" gradientUnits="userSpaceOnUse">
<stop stop-color="#FEBBBA"/>
<stop offset="1" stop-color="#FF928E"/>
</linearGradient>
<linearGradient id="paint9_linear_4861_121083" x1="214.23" y1="123.604" x2="214.773" y2="140.261" gradientUnits="userSpaceOnUse">
<stop stop-color="#FEBBBA"/>
<stop offset="1" stop-color="#FF928E"/>
</linearGradient>
<linearGradient id="paint10_linear_4861_121083" x1="220.194" y1="140.69" x2="218.381" y2="129.285" gradientUnits="userSpaceOnUse">
<stop stop-color="#FEBBBA"/>
<stop offset="1" stop-color="#FF928E"/>
</linearGradient>
<linearGradient id="paint11_linear_4861_121083" x1="48.7321" y1="178.894" x2="43.0449" y2="178.894" gradientUnits="userSpaceOnUse">
<stop stop-color="#09005D"/>
<stop offset="1" stop-color="#1A0F91"/>
</linearGradient>
<linearGradient id="paint12_linear_4861_121083" x1="72.7641" y1="201.281" x2="64.6081" y2="105.791" gradientUnits="userSpaceOnUse">
<stop stop-color="#FEBBBA"/>
<stop offset="1" stop-color="#FF928E"/>
</linearGradient>
<linearGradient id="paint13_linear_4861_121083" x1="75.1545" y1="177.857" x2="65.9521" y2="177.857" gradientUnits="userSpaceOnUse">
<stop stop-color="#09005D"/>
<stop offset="1" stop-color="#1A0F91"/>
</linearGradient>
<linearGradient id="paint14_linear_4861_121083" x1="56.3005" y1="202.7" x2="48.1424" y2="107.185" gradientUnits="userSpaceOnUse">
<stop stop-color="#FEBBBA"/>
<stop offset="1" stop-color="#FF928E"/>
</linearGradient>
<linearGradient id="paint15_linear_4861_121083" x1="73.6609" y1="107.156" x2="72.1288" y2="95.9277" gradientUnits="userSpaceOnUse">
<stop stop-color="#FEBBBA"/>
<stop offset="1" stop-color="#FF928E"/>
</linearGradient>
<linearGradient id="paint16_linear_4861_121083" x1="77.5417" y1="92.6836" x2="64.1634" y2="68.833" gradientUnits="userSpaceOnUse">
<stop stop-color="#FEBBBA"/>
<stop offset="1" stop-color="#FF928E"/>
</linearGradient>
<linearGradient id="paint17_linear_4861_121083" x1="74.6865" y1="94.2826" x2="61.3081" y2="70.4319" gradientUnits="userSpaceOnUse">
<stop stop-color="#FEBBBA"/>
<stop offset="1" stop-color="#FF928E"/>
</linearGradient>
<linearGradient id="paint18_linear_4861_121083" x1="83.6304" y1="96.8881" x2="55.0995" y2="116.577" gradientUnits="userSpaceOnUse">
<stop stop-color="#FEBBBA"/>
<stop offset="1" stop-color="#FF928E"/>
</linearGradient>
</defs>
</svg>
