<svg width="243" height="213" viewBox="0 0 243 213" fill="none" xmlns="http://www.w3.org/2000/svg">
<path d="M28.9523 62.6848C54.4542 19.5133 108.025 6.75186 147.45 15.5156C158.214 17.9085 179.873 22.7231 194.747 41.4785C223.312 77.4971 209.291 142.783 172.566 177.358C167.837 181.81 135.251 211.519 91.6279 205.144C59.6891 200.476 39.7334 179.076 37.3144 176.419C34.2584 173.063 27.5852 165.167 22.2099 153.347C9.5799 125.575 13.0161 89.6628 28.9523 62.6848Z" fill="#39374E"/>
<path d="M47.9899 187.288C32.3727 180.976 23.6579 163.421 23.4775 151.524L28.3972 148.156C32.597 159.495 36.3457 167.309 47.7384 171.437C48.3561 171.661 48.7761 172.238 48.793 172.895L49.1438 186.484C49.1593 187.088 48.5502 187.514 47.9899 187.288Z" fill="#3ECC5F"/>
<path d="M20.2047 155.717C19.707 155.886 19.2363 155.402 19.4192 154.91L24.9095 140.133C25.0863 139.811 25.5395 139.785 25.7515 140.085L33.0201 150.372C33.3046 150.775 33.1215 151.337 32.6546 151.496L20.2047 155.717Z" fill="#3ECC5F"/>
<path d="M169.927 49.4297C185.054 56.8387 192.493 74.9711 191.823 86.8497L186.676 89.8585C183.296 78.2496 180.115 70.188 169.046 65.2578C168.446 64.9905 168.068 64.3847 168.098 63.7288L168.719 50.1492C168.746 49.5458 169.384 49.1639 169.927 49.4297Z" fill="#3ECC5F"/>
<path d="M199.303 83.0692L194.203 99.9299C193.853 101.087 192.328 101.341 191.621 100.36L182.222 87.3168C181.967 86.895 182.19 86.3468 182.667 86.2222L198.577 82.0658C199.163 81.9127 199.632 82.5602 199.303 83.0692Z" fill="#3ECC5F"/>
<path d="M22.1113 29.8477H157.631C161.326 29.8477 164.302 32.3581 164.235 35.418L162.329 122.497C162.239 126.596 158.17 129.865 149.84 129.813L23.6785 128.502C19.2948 128.456 15.6223 126.17 15.4505 123.254C15.4451 123.162 15.4423 123.069 15.4424 122.975L15.5054 35.3156C15.5076 32.2952 18.4645 29.8477 22.1113 29.8477Z" fill="#A3A3A3"/>
<path d="M24.9718 32.2734H155.117C158.666 32.2734 161.524 34.6643 161.46 37.5785L159.629 120.51C159.543 124.413 155.635 127.526 150.882 127.477L24.8316 126.178C21.3579 126.142 18.5654 123.818 18.5674 120.965L18.6279 37.481C18.6301 34.6044 21.4697 32.2734 24.9718 32.2734Z" fill="#DCDCDC"/>
<path d="M161.323 43.5689L161.46 37.4876C161.524 34.5863 158.665 32.2734 155.115 32.2734H24.9182C21.4148 32.2734 18.5741 34.5267 18.572 37.3905L18.5674 43.5689H161.323Z" fill="#EDEDED"/>
<path opacity="0.27" d="M123.426 40.549H67.4521C66.5293 40.8088 65.7812 40.1885 65.7812 39.4233V37.3698C65.7812 36.6046 66.5293 35.9844 67.4521 35.9844H123.426C124.349 35.9844 125.097 36.6047 125.097 37.3698V39.4233C125.097 40.1885 124.349 40.8088 123.426 40.549Z" fill="#ADADAD"/>
<path d="M107.039 93.0641C107.039 95.9395 104.709 98.272 101.832 98.278L28.7673 98.4284C26.8577 98.4284 25.3096 96.8459 25.3096 94.8937V56.101C25.3096 54.1273 26.8906 52.5361 28.8211 52.5668L103.635 53.7562C105.523 53.7862 107.039 55.3597 107.039 57.2903V93.0641Z" fill="#ADADAD"/>
<path opacity="0.27" d="M107.678 125.123L72.1677 124.828C70.9677 124.818 69.9999 124.226 70.0059 123.505L70.1835 102.153C70.1893 101.446 71.1331 100.876 72.3109 100.867L107.379 101.383C108.864 101.405 110.053 102.14 110.046 103.032L109.862 123.836C109.856 124.557 108.878 125.133 107.678 125.123Z" fill="white"/>
<path opacity="0.27" d="M62.5144 124.974L27.0037 124.679C25.8037 124.669 24.8359 124.077 24.8418 123.357L25.0194 102.005C25.0253 101.298 25.969 100.727 27.1469 100.719L62.2146 101.234C63.6998 101.256 64.8894 101.992 64.8815 102.884L64.6979 123.688C64.692 124.408 63.7144 124.984 62.5144 124.974Z" fill="white"/>
<path opacity="0.27" d="M152.388 125.775L116.878 125.48C115.678 125.47 114.71 124.878 114.716 124.158L114.893 102.806C114.899 102.099 115.843 101.528 117.021 101.52L152.089 102.035C153.574 102.057 154.763 102.793 154.756 103.684L154.572 124.489C154.566 125.209 153.588 125.785 152.388 125.775Z" fill="white"/>
<path opacity="0.27" d="M149.827 98.0681H115.505C113.301 98.0681 111.514 96.9041 111.514 95.4683V54.8873C111.514 53.6811 112.963 52.7014 114.756 52.6949L150.001 52.5664C152.136 52.6271 153.818 53.772 153.818 55.1638V95.4684C153.818 96.9041 152.031 98.0681 149.827 98.0681Z" fill="white"/>
<path d="M47.833 39.4947C46.2139 39.4947 44.8965 38.1782 44.8965 36.5598C44.8965 34.9416 46.2138 33.625 47.833 33.625C49.4525 33.625 50.7698 34.9415 50.7698 36.5598C50.7698 38.1782 49.4525 39.4947 47.833 39.4947ZM47.833 34.0966C46.474 34.0966 45.3684 35.2015 45.3684 36.5598C45.3684 37.918 46.474 39.0231 47.833 39.0231C49.1921 39.0231 50.2979 37.918 50.2979 36.5598C50.2979 35.2015 49.1921 34.0966 47.833 34.0966Z" fill="#ADADAD"/>
<path d="M38.4864 39.7134C36.8672 39.7134 35.5498 38.3969 35.5498 36.7787C35.5498 35.1603 36.8671 33.8438 38.4864 33.8438C40.1058 33.8438 41.4231 35.1603 41.4231 36.7787C41.423 38.3969 40.1057 39.7134 38.4864 39.7134ZM38.4864 34.3154C37.1273 34.3154 36.0217 35.4205 36.0217 36.7787C36.0217 38.1369 37.1273 39.2418 38.4864 39.2418C39.8454 39.2418 40.9512 38.1369 40.9512 36.7787C40.9512 35.4205 39.8453 34.3154 38.4864 34.3154Z" fill="#ADADAD"/>
<path d="M29.5041 39.7134C27.8847 39.7134 26.5674 38.3969 26.5674 36.7787C26.5674 35.1603 27.8847 33.8438 29.5041 33.8438C31.1233 33.8438 32.4407 35.1603 32.4407 36.7787C32.4407 38.3969 31.1234 39.7134 29.5041 39.7134ZM29.5041 34.3154C28.1451 34.3154 27.0393 35.4205 27.0393 36.7787C27.0393 38.1369 28.1451 39.2418 29.5041 39.2418C30.8632 39.2418 31.9688 38.1369 31.9688 36.7787C31.9688 35.4205 30.8632 34.3154 29.5041 34.3154Z" fill="#ADADAD"/>
<g opacity="0.91">
<path d="M68.4247 83.2608C64.4463 83.2608 61.2158 80.0323 61.2158 76.064C61.2158 72.0879 64.4463 68.8594 68.417 68.8594C72.3955 68.8594 75.626 72.0879 75.626 76.0563V76.064C75.626 80.0323 72.3955 83.2608 68.4247 83.2608ZM68.4247 69.2846C64.6809 69.2846 61.6412 72.3224 61.6412 76.0563C61.6412 79.7978 64.6809 82.8356 68.417 82.8356C72.1609 82.8356 75.2006 79.7978 75.2006 76.064V76.0563C75.2006 72.3223 72.161 69.2846 68.4247 69.2846Z" fill="white"/>
<path d="M66.4349 79.6767C66.2336 79.6767 66.0676 79.5164 66.0622 79.314L65.8918 72.9568C65.8863 72.7471 65.9877 72.5535 66.1631 72.4387C66.3384 72.3238 66.5565 72.308 66.7468 72.3969L73.0303 75.3341C73.2376 75.4309 73.3702 75.6332 73.3763 75.862C73.3823 76.0907 73.2605 76.2997 73.0585 76.4074L67.5119 79.3626C67.3299 79.4594 67.1042 79.3905 67.0074 79.2091C66.9104 79.0275 66.9792 78.8017 67.161 78.7048L72.4511 75.8863L66.6439 73.1719L66.8079 79.294C66.8134 79.4999 66.651 79.6711 66.4451 79.6766C66.4416 79.6767 66.4383 79.6767 66.4349 79.6767Z" fill="white"/>
</g>
<path d="M64.4656 106.582H199.985C203.68 106.582 206.657 109.092 206.59 112.152L204.683 199.232C204.594 203.33 200.524 206.599 192.195 206.547L66.0329 205.236C61.6493 205.191 57.9768 202.905 57.805 199.988C57.7996 199.896 57.7968 199.803 57.7969 199.709L57.8599 112.05C57.8621 109.03 60.8189 106.582 64.4656 106.582Z" fill="#5BB570"/>
<path d="M67.4544 108.941H197.585C201.133 108.941 203.991 111.327 203.927 114.234L202.096 196.972C202.01 200.866 198.102 203.972 193.35 203.923L67.3143 202.627C63.841 202.591 61.0488 200.272 61.0508 197.426L61.1113 114.137C61.1134 111.267 63.9527 108.941 67.4544 108.941Z" fill="#9CEAAE"/>
<path d="M149.393 169.798C149.393 172.674 147.064 175.006 144.187 175.012L71.1218 175.163C69.2122 175.163 67.6641 173.58 67.6641 171.628V132.835C67.6641 130.862 69.2451 129.271 71.1756 129.301L145.989 130.491C147.878 130.521 149.393 132.094 149.393 134.025V169.798Z" fill="#3ECC5F"/>
<path opacity="0.27" d="M150.033 201.857L114.522 201.562C113.322 201.552 112.354 200.96 112.36 200.24L112.538 178.888C112.544 178.181 113.488 177.61 114.665 177.602L149.733 178.117C151.218 178.139 152.408 178.875 152.4 179.766L152.216 200.571C152.21 201.291 151.233 201.867 150.033 201.857Z" fill="white"/>
<path opacity="0.27" d="M104.868 201.708L69.3572 201.414C68.1572 201.404 67.1893 200.812 67.1953 200.091L67.3729 178.739C67.3788 178.032 68.3226 177.462 69.5004 177.453L104.568 177.969C106.053 177.991 107.243 178.726 107.235 179.618L107.051 200.422C107.045 201.143 106.068 201.718 104.868 201.708Z" fill="white"/>
<path opacity="0.27" d="M194.743 202.509L159.232 202.214C158.032 202.204 157.064 201.612 157.07 200.892L157.248 179.54C157.254 178.833 158.197 178.262 159.375 178.254L194.443 178.77C195.928 178.791 197.118 179.527 197.11 180.419L196.926 201.223C196.921 201.943 195.943 202.519 194.743 202.509Z" fill="white"/>
<path opacity="0.27" d="M192.181 174.802H157.859C155.655 174.802 153.868 173.638 153.868 172.203V131.622C153.868 130.415 155.317 129.436 157.111 129.429L192.356 129.301C194.49 129.362 196.172 130.506 196.172 131.898V172.203C196.172 173.638 194.386 174.802 192.181 174.802Z" fill="white"/>
<path d="M109.209 159.401C105.23 159.401 102 156.173 102 152.205C102 148.229 105.23 145 109.201 145C113.18 145 116.41 148.229 116.41 152.197V152.205C116.41 156.173 113.18 159.401 109.209 159.401ZM109.209 145.425C105.465 145.425 102.425 148.463 102.425 152.197C102.425 155.939 105.465 158.976 109.201 158.976C112.945 158.976 115.985 155.938 115.985 152.205V152.197C115.985 148.463 112.945 145.425 109.209 145.425Z" fill="#9CEAAE"/>
<path d="M107.219 155.817C107.018 155.817 106.852 155.657 106.846 155.455L106.676 149.097C106.67 148.888 106.772 148.694 106.947 148.579C107.123 148.464 107.341 148.449 107.531 148.538L113.814 151.475C114.022 151.572 114.154 151.774 114.16 152.003C114.166 152.231 114.045 152.44 113.843 152.548L108.296 155.503C108.114 155.6 107.888 155.531 107.792 155.35C107.695 155.168 107.763 154.942 107.945 154.845L113.235 152.027L107.428 149.312L107.592 155.435C107.598 155.64 107.435 155.812 107.229 155.817C107.226 155.817 107.222 155.817 107.219 155.817Z" fill="#9CEAAE"/>
<path d="M205.185 119.237L205.322 113.143C205.387 110.236 202.502 107.918 198.921 107.918H67.5721C64.0377 107.918 61.1718 110.176 61.1697 113.046L61.165 119.237H205.185Z" fill="#3ECC5F"/>
<path d="M165.899 116.483H109.925C109.002 116.742 108.254 116.122 108.254 115.357V113.303C108.254 112.538 109.002 111.918 109.925 111.918H165.899C166.822 111.918 167.57 112.538 167.57 113.303V115.357C167.57 116.122 166.822 116.742 165.899 116.483Z" fill="#9CEAAE"/>
<path d="M90.3047 115.424C88.6856 115.424 87.3682 114.108 87.3682 112.489C87.3682 110.871 88.6855 109.555 90.3047 109.555C91.9242 109.555 93.2415 110.871 93.2415 112.489C93.2415 114.108 91.9242 115.424 90.3047 115.424ZM90.3047 110.026C88.9457 110.026 87.8401 111.131 87.8401 112.489C87.8401 113.848 88.9457 114.953 90.3047 114.953C91.6638 114.953 92.7695 113.848 92.7695 112.489C92.7696 111.131 91.6638 110.026 90.3047 110.026Z" fill="#9CEAAE"/>
<path d="M80.9571 115.643C79.3379 115.643 78.0205 114.327 78.0205 112.708C78.0205 111.09 79.3378 109.773 80.9571 109.773C82.5765 109.773 83.8938 111.09 83.8938 112.708C83.8938 114.327 82.5764 115.643 80.9571 115.643ZM80.9571 110.245C79.598 110.245 78.4924 111.35 78.4924 112.708C78.4924 114.067 79.598 115.172 80.9571 115.172C82.3161 115.172 83.4219 114.067 83.4219 112.708C83.4219 111.35 82.3161 110.245 80.9571 110.245Z" fill="#9CEAAE"/>
<path d="M71.9758 115.643C70.3564 115.643 69.0391 114.327 69.0391 112.708C69.0391 111.09 70.3564 109.773 71.9758 109.773C73.595 109.773 74.9124 111.09 74.9124 112.708C74.9123 114.327 73.595 115.643 71.9758 115.643ZM71.9758 110.245C70.6168 110.245 69.511 111.35 69.511 112.708C69.511 114.067 70.6168 115.172 71.9758 115.172C73.3349 115.172 74.4404 114.067 74.4404 112.708C74.4404 111.35 73.3349 110.245 71.9758 110.245Z" fill="#9CEAAE"/>
</svg>
