<svg width="220" height="213" viewBox="0 0 220 213" fill="none" xmlns="http://www.w3.org/2000/svg">
<path d="M176.582 159.507C172.513 163.702 168.871 166.168 166.083 168.03C138.892 186.186 107.81 180.953 98.1999 179.164C82.6955 176.278 69.6077 174.243 58.3628 164.083C32.8113 140.999 34.054 92.842 53.5786 63.0111C55.8936 59.474 75.3885 30.5764 106.538 26.5045C107.3 26.4049 107.868 26.3482 108.366 26.2955C113.185 25.7853 143.046 23.0925 167.395 43.4919C170.88 46.4119 176.489 51.679 181.691 59.7121C200.709 89.0846 200.769 134.576 176.582 159.507Z" fill="#F2F2F2"/>
<g opacity="0.3">
<path d="M175.848 55.9366C175.621 55.789 175.557 55.4854 175.705 55.2587C175.992 54.8182 176.263 54.3587 176.513 53.893C176.639 53.6573 176.931 53.5669 177.168 53.6881C177.17 53.6896 177.173 53.691 177.176 53.6925C177.415 53.8202 177.504 54.1172 177.376 54.3557C177.114 54.8459 176.828 55.3297 176.526 55.7934C176.388 56.0054 176.113 56.0751 175.893 55.9624C175.877 55.9546 175.862 55.9461 175.848 55.9366ZM177.572 51.5426C177.756 51.0475 177.92 50.5397 178.06 50.0331C178.132 49.7726 178.402 49.6195 178.663 49.6917C178.924 49.765 179.076 50.0339 179.004 50.2946C178.857 50.8276 178.684 51.3621 178.491 51.8831C178.397 52.1368 178.115 52.2662 177.861 52.1721C177.843 52.1653 177.825 52.1574 177.808 52.1487C177.59 52.0372 177.485 51.7778 177.572 51.5426ZM178.573 47.5082C178.642 46.986 178.688 46.4545 178.712 45.9281C178.724 45.6579 178.953 45.4485 179.223 45.4605C179.493 45.4729 179.702 45.7014 179.691 45.9718C179.666 46.5261 179.617 47.0859 179.544 47.6357C179.509 47.904 179.263 48.0928 178.995 48.0577C178.938 48.0501 178.884 48.033 178.835 48.0082C178.656 47.9165 178.545 47.7192 178.573 47.5082ZM178.647 43.3511C178.597 42.8261 178.523 42.2973 178.429 41.7791C178.38 41.513 178.557 41.2578 178.823 41.2092C179.089 41.161 179.344 41.3374 179.393 41.6032C179.492 42.1489 179.569 42.7057 179.622 43.2581C179.648 43.5273 179.45 43.7666 179.181 43.7921C179.084 43.8013 178.992 43.782 178.912 43.7409C178.768 43.6673 178.663 43.524 178.647 43.3511ZM177.792 39.2813C177.627 38.7818 177.439 38.2821 177.232 37.7965C177.125 37.5476 177.241 37.2599 177.49 37.1537C177.739 37.0474 178.027 37.1632 178.133 37.4121C178.351 37.9229 178.549 38.4487 178.723 38.9744C178.807 39.2312 178.668 39.5082 178.411 39.593C178.281 39.6357 178.147 39.6215 178.034 39.564C177.924 39.5073 177.834 39.4088 177.792 39.2813ZM176.059 35.502C175.787 35.0506 175.493 34.6054 175.184 34.1784C175.025 33.9593 175.074 33.653 175.293 33.4944C175.512 33.3357 175.818 33.3846 175.977 33.6038C176.302 34.053 176.612 34.5218 176.898 34.9969C177.038 35.2287 176.963 35.5296 176.731 35.6692C176.58 35.7598 176.401 35.7598 176.255 35.6853C176.176 35.6451 176.108 35.5833 176.059 35.502ZM160.539 26.0141C160.551 25.7439 160.78 25.5349 161.051 25.5474C161.604 25.5731 162.164 25.6233 162.715 25.6967C162.983 25.7325 163.172 25.9789 163.136 26.247C163.1 26.5151 162.854 26.7035 162.586 26.6678C162.063 26.5981 161.531 26.5505 161.005 26.5262C160.933 26.5228 160.865 26.5041 160.805 26.4732C160.639 26.3884 160.529 26.2123 160.539 26.0141ZM173.532 32.203C173.167 31.8236 172.781 31.4553 172.385 31.1086C172.181 30.9303 172.161 30.6208 172.339 30.4173C172.517 30.2136 172.826 30.1942 173.03 30.3713C173.447 30.7365 173.854 31.1243 174.238 31.5239C174.426 31.7189 174.42 32.029 174.225 32.2166C174.07 32.3653 173.843 32.3923 173.662 32.2998C173.615 32.2756 173.571 32.2433 173.532 32.203ZM164.77 26.5824C164.843 26.3218 165.113 26.1695 165.373 26.2422C165.907 26.3912 166.442 26.5652 166.962 26.7591C167.216 26.8526 167.344 27.1358 167.25 27.3892C167.155 27.6427 166.873 27.7715 166.619 27.6771C166.125 27.4928 165.617 27.3274 165.11 27.1859C165.078 27.1769 165.047 27.1647 165.018 27.15C164.815 27.0461 164.706 26.8105 164.77 26.5824ZM170.332 29.5519C169.892 29.2638 169.433 28.991 168.969 28.741C168.73 28.6128 168.641 28.3159 168.769 28.0775C168.896 27.8424 169.187 27.7525 169.424 27.8735C169.427 27.8751 169.43 27.8767 169.433 27.8784C169.922 28.1414 170.405 28.4286 170.868 28.7317C171.095 28.88 171.158 29.1834 171.01 29.4099C170.872 29.6214 170.598 29.6907 170.378 29.5781C170.362 29.5703 170.347 29.5615 170.332 29.5519Z" fill="url(#paint0_linear_4861_121084)"/>
<path d="M157.369 26.6251C157.455 26.669 157.554 26.6882 157.657 26.6742C157.908 26.6401 158.163 26.611 158.416 26.5869C158.685 26.5615 158.883 26.3224 158.857 26.0532C158.832 25.7838 158.593 25.5857 158.323 25.6117C158.057 25.6367 157.789 25.6676 157.526 25.7033C157.258 25.7396 157.07 25.9865 157.106 26.2545C157.129 26.4198 157.231 26.5545 157.369 26.6251Z" fill="url(#paint1_linear_4861_121084)"/>
</g>
<g opacity="0.3">
<path d="M144.529 34.2523C144.739 34.3599 145.003 34.3021 145.147 34.1052C145.296 33.9014 145.452 33.6972 145.61 33.4986C145.779 33.287 145.744 32.9788 145.533 32.8102C145.32 32.6409 145.013 32.6765 144.844 32.8879C144.677 33.0971 144.513 33.312 144.356 33.5266C144.197 33.745 144.244 34.0514 144.462 34.2112C144.484 34.227 144.506 34.2406 144.529 34.2523Z" fill="url(#paint2_linear_4861_121084)"/>
<path d="M150.366 62.0491C150.131 61.9143 150.05 61.6149 150.185 61.3801C150.32 61.1457 150.619 61.0652 150.854 61.1998C151.301 61.4565 151.765 61.6981 152.239 61.921C152.484 62.0347 152.59 62.3279 152.475 62.5728C152.359 62.8177 152.068 62.9229 151.823 62.808C151.617 62.7114 151.414 62.6118 151.213 62.5091C150.927 62.3627 150.642 62.208 150.366 62.0491ZM153.989 63.1626C154.07 62.9046 154.345 62.7608 154.603 62.8417C155.099 62.9968 155.606 63.1328 156.112 63.2456C156.376 63.3036 156.542 63.5663 156.483 63.8304C156.424 64.0943 156.163 64.2606 155.899 64.2016C155.366 64.0829 154.832 63.9399 154.311 63.7765C154.283 63.768 154.258 63.7574 154.233 63.7449C154.025 63.6382 153.917 63.3939 153.989 63.1626ZM148.148 60.5633C147.717 60.2297 147.295 59.873 146.892 59.503C146.693 59.3199 146.68 59.0099 146.863 58.8107C147.046 58.6116 147.356 58.5989 147.555 58.7818C147.937 59.1332 148.339 59.4719 148.748 59.7887C148.962 59.9543 149.001 60.262 148.835 60.476C148.689 60.6652 148.431 60.7176 148.225 60.6124C148.199 60.5986 148.173 60.5823 148.148 60.5633ZM158.091 64.0747C158.113 63.8051 158.349 63.6044 158.619 63.6267C159.136 63.6692 159.66 63.69 160.179 63.6888C160.449 63.688 160.669 63.9068 160.67 64.1775C160.67 64.4479 160.452 64.6677 160.181 64.6684C159.635 64.6698 159.083 64.6478 158.539 64.6031C158.473 64.5976 158.411 64.5796 158.356 64.5513C158.184 64.4635 158.074 64.2785 158.091 64.0747ZM145.058 57.5668C144.711 57.1468 144.377 56.7061 144.066 56.2567C143.912 56.0344 143.967 55.7293 144.189 55.5752C144.412 55.421 144.717 55.4764 144.871 55.6988C145.167 56.1256 145.484 56.5443 145.813 56.9431C145.985 57.1518 145.956 57.4606 145.747 57.6328C145.592 57.7612 145.381 57.7774 145.212 57.6912C145.154 57.6617 145.101 57.62 145.058 57.5668ZM142.699 53.9652C142.452 53.4784 142.222 52.9754 142.017 52.4704C141.915 52.2197 142.035 51.934 142.286 51.832C142.537 51.73 142.823 51.8505 142.924 52.1013C143.12 52.5812 143.338 53.0591 143.572 53.5218C143.695 53.763 143.599 54.0579 143.357 54.1804C143.212 54.254 143.047 54.2484 142.912 54.1795C142.823 54.1339 142.748 54.061 142.699 53.9652ZM141.181 49.935C141.046 49.4056 140.932 48.8646 140.841 48.3272C140.796 48.0603 140.976 47.8078 141.243 47.7628C141.51 47.7178 141.762 47.8978 141.807 48.1645C141.893 48.6753 142.002 49.1891 142.131 49.6923C142.198 49.9544 142.039 50.2212 141.777 50.2881C141.657 50.3189 141.536 50.3022 141.433 50.2498C141.312 50.1881 141.218 50.0768 141.181 49.935ZM140.579 45.6698C140.563 45.1237 140.569 44.5705 140.599 44.0258C140.614 43.7556 140.845 43.5486 141.115 43.5634C141.385 43.5782 141.592 43.8093 141.578 44.0794C141.549 44.5966 141.543 45.1218 141.558 45.6406C141.566 45.9111 141.354 46.1368 141.083 46.1448C140.998 46.1474 140.917 46.1279 140.846 46.0916C140.692 46.0128 140.585 45.8549 140.579 45.6698ZM140.929 41.3742C141.033 40.8393 141.161 40.3017 141.311 39.7763C141.385 39.516 141.655 39.3648 141.916 39.4389C142.175 39.5126 142.327 39.7836 142.253 40.0439C142.111 40.543 141.989 41.0536 141.89 41.5617C141.839 41.8272 141.581 42.0006 141.316 41.9488C141.27 41.9398 141.226 41.9246 141.186 41.9042C140.997 41.8073 140.886 41.5935 140.929 41.3742ZM142.212 37.2646C142.373 36.8966 142.547 36.5289 142.729 36.172C142.795 36.0427 142.863 35.9147 142.931 35.7875C143.06 35.5494 143.356 35.4542 143.595 35.5889C143.833 35.7172 143.922 36.0144 143.794 36.2526C143.728 36.3734 143.664 36.4952 143.601 36.6181C143.428 36.9575 143.262 37.3067 143.11 37.6567C143.001 37.9046 142.713 38.0178 142.465 37.9095C142.455 37.9054 142.446 37.9011 142.437 37.8966C142.208 37.7796 142.108 37.5031 142.212 37.2646Z" fill="url(#paint3_linear_4861_121084)"/>
<path d="M162.566 64.4264C162.653 64.4708 162.753 64.4898 162.857 64.4753C163.12 64.4383 163.386 64.3951 163.65 64.3468C163.916 64.2981 164.092 64.0429 164.044 63.7768C163.995 63.5107 163.74 63.3343 163.474 63.3831C163.223 63.429 162.97 63.47 162.72 63.5051C162.453 63.5427 162.266 63.7904 162.304 64.0583C162.327 64.2226 162.429 64.3563 162.566 64.4264Z" fill="url(#paint4_linear_4861_121084)"/>
</g>
<path d="M167.625 57.7221C167.714 57.6828 167.769 57.5912 167.761 57.4939L167.534 54.7166C168.575 53.9356 169.499 52.9831 170.257 51.8793L173.04 51.9901C173.137 51.9939 173.227 51.9354 173.262 51.8444L174.477 48.7305C174.512 48.6395 174.486 48.5359 174.411 48.4728L172.289 46.6705C172.478 45.3448 172.443 44.0182 172.205 42.7387L174.252 40.8483C174.324 40.7821 174.346 40.6776 174.307 40.5881L172.963 37.5275C172.924 37.4381 172.832 37.3834 172.735 37.3914L169.958 37.6183C169.177 36.5773 168.224 35.6534 167.121 34.8951L167.231 32.1126C167.235 32.015 167.177 31.9257 167.086 31.8902L163.972 30.6758C163.881 30.6403 163.777 30.6665 163.714 30.7409L161.912 32.8639C160.586 32.6747 159.259 32.7097 157.98 32.9473L156.09 30.9001C156.023 30.8283 155.919 30.8065 155.829 30.8458L152.769 32.189C152.679 32.2283 152.625 32.32 152.633 32.4173L152.859 35.1946C151.818 35.9755 150.895 36.928 150.136 38.0319L147.354 37.9212C147.256 37.9172 147.167 37.9757 147.131 38.0667L145.917 41.1808C145.882 41.2718 145.908 41.3753 145.982 41.4385L148.105 43.2408C147.916 44.5665 147.951 45.8931 148.188 47.1726L146.141 49.063C146.07 49.1292 146.048 49.2337 146.087 49.3232L147.43 52.3838C147.469 52.4732 147.561 52.5279 147.658 52.5199L150.436 52.293C151.217 53.334 152.169 54.2579 153.273 55.0162L153.162 57.7988C153.158 57.8963 153.217 57.9856 153.308 58.0211L156.422 59.2355C156.513 59.271 156.616 59.2448 156.68 59.1703L158.482 57.0475C159.807 57.2367 161.134 57.2015 162.414 56.9641L164.304 59.0112C164.37 59.083 164.475 59.1047 164.564 59.0655L167.625 57.7221Z" fill="url(#paint5_linear_4861_121084)"/>
<path d="M158.248 47.6905C156.739 46.6154 156.386 44.5135 157.461 43.0047C157.982 42.2738 158.756 41.7894 159.641 41.641C160.526 41.4924 161.416 41.6972 162.147 42.2183C163.656 43.2934 164.009 45.3953 162.933 46.9041C161.955 48.2767 160.127 48.6925 158.669 47.9467C158.525 47.8728 158.384 47.7874 158.248 47.6905ZM159.771 42.414C159.092 42.5279 158.499 42.8991 158.099 43.4596C157.275 44.6163 157.546 46.2281 158.702 47.0523C159.859 47.8772 161.471 47.606 162.295 46.4492C163.119 45.2926 162.849 43.6808 161.692 42.8566C161.587 42.7818 161.478 42.7158 161.366 42.6582C160.877 42.408 160.323 42.3215 159.771 42.414Z" fill="url(#paint6_linear_4861_121084)"/>
<path d="M156.398 52.2392C156.648 52.3673 156.907 52.4835 157.172 52.5871C157.256 52.6197 157.34 52.651 157.425 52.6809C157.842 52.8284 158.27 52.9424 158.703 53.0213C158.709 53.0223 158.715 53.0234 158.721 53.0245C158.738 53.0275 158.754 53.0305 158.771 53.0333C158.804 53.0391 158.837 53.0444 158.869 53.0497C158.955 53.0636 159.037 53.0193 159.075 52.9457C159.084 52.9278 159.09 52.9081 159.094 52.8872C159.111 52.7804 159.038 52.6802 158.931 52.6628C158.382 52.5744 157.838 52.426 157.315 52.2219C154.717 51.2092 152.96 48.9594 152.454 46.4079C152.173 44.9888 152.279 43.4764 152.842 42.0315C152.941 41.7781 153.052 41.5316 153.174 41.2927C153.997 39.6853 155.336 38.4202 157.011 37.6849C158.936 36.8401 161.074 36.7955 163.033 37.5591C167.077 39.1367 169.081 43.7072 167.505 47.7495C167.408 47.9988 167.298 48.2422 167.177 48.4788C166.653 49.504 165.909 50.4032 164.998 51.109C164.974 51.1272 164.956 51.1497 164.944 51.1746C164.91 51.24 164.915 51.3218 164.963 51.3838C165.03 51.4692 165.152 51.4853 165.238 51.4187C166.195 50.6777 166.975 49.7338 167.526 48.6574C167.653 48.4091 167.768 48.1536 167.87 47.892C169.525 43.6479 167.418 38.8485 163.175 37.194C161.119 36.3922 158.874 36.4392 156.854 37.326C155.095 38.0979 153.689 39.4262 152.826 41.1135C152.697 41.3643 152.581 41.6231 152.477 41.889C151.675 43.9449 151.722 46.1899 152.609 48.2105C153.381 49.9701 154.71 51.3759 156.398 52.2392Z" fill="url(#paint7_linear_4861_121084)"/>
<g opacity="0.3">
<path d="M194.1 79.4793C193.883 79.4018 193.77 79.1629 193.848 78.946C193.999 78.5244 194.133 78.0901 194.248 77.6549C194.306 77.4348 194.53 77.3024 194.75 77.356C194.752 77.3566 194.755 77.3573 194.758 77.3579C194.981 77.4167 195.113 77.645 195.055 77.8678C194.934 78.3258 194.792 78.7831 194.634 79.2269C194.561 79.4298 194.347 79.5418 194.143 79.4919C194.128 79.4884 194.114 79.4843 194.1 79.4793ZM194.661 75.4987C194.716 75.0522 194.752 74.5992 194.768 74.1518C194.776 73.9217 194.969 73.7416 195.2 73.7499C195.431 73.7591 195.61 73.9518 195.602 74.1821C195.584 74.6528 195.547 75.1297 195.49 75.5995C195.462 75.8282 195.254 75.9911 195.025 75.9632C195.008 75.9612 194.992 75.9582 194.976 75.9543C194.774 75.9049 194.636 75.7108 194.661 75.4987ZM194.694 71.9586C194.648 71.5124 194.582 71.0629 194.497 70.6222C194.454 70.396 194.602 70.1773 194.829 70.1339C195.055 70.0908 195.273 70.2389 195.317 70.4652C195.406 70.9293 195.476 71.4029 195.524 71.8726C195.548 72.1018 195.381 72.3068 195.152 72.3307C195.103 72.3357 195.056 72.3321 195.011 72.3212C194.844 72.2805 194.713 72.1389 194.694 71.9586ZM193.935 68.5001C193.79 68.075 193.625 67.6514 193.444 67.2407C193.351 67.0298 193.447 66.7836 193.658 66.6908C193.869 66.5983 194.115 66.6941 194.208 66.9047C194.398 67.3371 194.572 67.7832 194.725 68.2304C194.799 68.4485 194.682 68.6856 194.464 68.76C194.386 68.7866 194.306 68.7888 194.231 68.7707C194.097 68.7381 193.983 68.64 193.935 68.5001ZM192.424 65.297C192.188 64.9156 191.933 64.5389 191.666 64.1775C191.529 63.9922 191.568 63.731 191.753 63.5939C191.938 63.4568 192.2 63.4959 192.337 63.6812C192.618 64.0614 192.886 64.4578 193.134 64.859C193.255 65.0551 193.194 65.3122 192.998 65.4331C192.899 65.494 192.784 65.5088 192.68 65.4834C192.577 65.4583 192.484 65.3942 192.424 65.297ZM190.241 62.508C189.927 62.1877 189.595 61.8769 189.255 61.5842C189.08 61.434 189.061 61.1705 189.211 60.996C189.361 60.8212 189.624 60.8013 189.799 60.9516C190.157 61.2595 190.507 61.5868 190.837 61.9239C190.998 62.0885 190.996 62.3525 190.831 62.5139C190.724 62.6187 190.576 62.6543 190.44 62.6213C190.367 62.6034 190.298 62.5658 190.241 62.508ZM175.51 57.7111C175.467 57.4847 175.616 57.2663 175.842 57.2233C176.306 57.1353 176.78 57.0664 177.251 57.0185C177.48 56.9952 177.685 57.1621 177.708 57.3914C177.731 57.6204 177.565 57.8252 177.335 57.8486C176.888 57.894 176.438 57.9595 175.998 58.0432C175.938 58.0547 175.878 58.0525 175.822 58.0388C175.668 58.0013 175.542 57.8771 175.51 57.7111ZM187.497 60.2736C187.12 60.0312 186.727 59.8023 186.33 59.5933C186.126 59.4858 186.048 59.2335 186.156 59.0297C186.263 58.8257 186.515 58.7487 186.719 58.8551C187.137 59.0753 187.55 59.3163 187.948 59.5716C188.141 59.6961 188.198 59.9541 188.073 60.1481C187.974 60.3018 187.792 60.369 187.623 60.3281C187.58 60.3175 187.537 60.2993 187.497 60.2736ZM179.128 57.3466C179.137 57.1164 179.331 56.9368 179.561 56.9456C180.033 56.9637 180.51 57.0024 180.979 57.0604C181.208 57.0876 181.37 57.297 181.342 57.5256C181.314 57.7542 181.105 57.9167 180.877 57.8885C180.431 57.8334 179.977 57.7966 179.529 57.7795C179.5 57.7784 179.473 57.7743 179.446 57.7678C179.257 57.7219 179.12 57.5482 179.128 57.3466ZM184.322 58.7088C183.901 58.5571 183.467 58.4216 183.033 58.3062C182.81 58.2471 182.677 58.0185 182.737 57.7958C182.795 57.5761 183.018 57.4441 183.238 57.4977C183.241 57.4983 183.244 57.4991 183.247 57.4999C183.704 57.6213 184.161 57.7639 184.605 57.9235C184.821 58.0016 184.934 58.2405 184.856 58.4574C184.783 58.6598 184.57 58.7714 184.365 58.7216C184.351 58.7182 184.337 58.7138 184.322 58.7088Z" fill="url(#paint8_linear_4861_121084)"/>
<path d="M173.006 58.8435C173.085 58.8629 173.172 58.8591 173.254 58.8272C173.455 58.7496 173.66 58.6751 173.865 58.6053C174.083 58.5311 174.2 58.2939 174.126 58.0759C174.052 57.8578 173.815 57.7408 173.596 57.8155C173.381 57.8888 173.165 57.9673 172.953 58.0489C172.739 58.132 172.632 58.3736 172.715 58.5884C172.766 58.7209 172.877 58.8122 173.006 58.8435Z" fill="url(#paint9_linear_4861_121084)"/>
</g>
<g opacity="0.3">
<path d="M163.874 67.6982C164.069 67.7459 164.276 67.6459 164.357 67.4544C164.44 67.2561 164.529 67.0562 164.621 66.8604C164.719 66.6518 164.629 66.4033 164.42 66.3054C164.211 66.2071 163.963 66.2973 163.865 66.5057C163.769 66.7119 163.675 66.9224 163.587 67.1312C163.498 67.3436 163.598 67.5882 163.81 67.6775C163.831 67.6862 163.852 67.693 163.874 67.6982Z" fill="url(#paint10_linear_4861_121084)"/>
<path d="M174.195 89.5739C173.974 89.5085 173.848 89.2763 173.913 89.0553C173.979 88.8344 174.211 88.7087 174.432 88.7738C174.852 88.8984 175.285 89.0069 175.722 89.0979C175.947 89.1439 176.092 89.3659 176.045 89.5915C175.998 89.817 175.778 89.9618 175.552 89.9149C175.363 89.8755 175.175 89.8331 174.988 89.7876C174.722 89.7228 174.455 89.651 174.195 89.5739ZM177.417 89.7811C177.433 89.5513 177.632 89.378 177.862 89.394C178.303 89.4246 178.751 89.4371 179.192 89.4308C179.422 89.4268 179.612 89.6115 179.615 89.842C179.618 90.0722 179.434 90.2617 179.204 90.265C178.739 90.2717 178.269 90.2586 177.804 90.2262C177.78 90.2245 177.757 90.2208 177.734 90.2154C177.54 90.1681 177.403 89.9869 177.417 89.7811ZM172.064 88.7806C171.642 88.5892 171.221 88.3771 170.815 88.1501C170.613 88.0377 170.542 87.7835 170.654 87.5823C170.766 87.3812 171.02 87.3096 171.222 87.4217C171.608 87.6374 172.007 87.8388 172.408 88.0204C172.618 88.1155 172.711 88.3626 172.616 88.5726C172.532 88.7583 172.329 88.8526 172.138 88.806C172.113 88.7999 172.089 88.7916 172.064 88.7806ZM180.995 89.7272C180.96 89.4995 181.116 89.2864 181.344 89.2517C181.78 89.1849 182.219 89.0986 182.648 88.9953C182.873 88.9412 183.098 89.079 183.152 89.3032C183.206 89.5271 183.068 89.7524 182.844 89.8063C182.392 89.9152 181.93 90.006 181.47 90.0764C181.415 90.0848 181.36 90.0821 181.308 90.0696C181.149 90.0308 181.021 89.8993 180.995 89.7272ZM168.912 86.9082C168.542 86.6287 168.179 86.3293 167.832 86.0185C167.661 85.8647 167.646 85.6011 167.8 85.4295C167.954 85.2578 168.218 85.2436 168.389 85.3974C168.718 85.6927 169.064 85.977 169.415 86.2424C169.599 86.3813 169.636 86.643 169.497 86.8268C169.393 86.9638 169.222 87.019 169.065 86.9808C169.011 86.9676 168.959 86.9436 168.912 86.9082ZM166.247 84.3899C165.947 84.0353 165.657 83.6639 165.387 83.2861C165.253 83.0985 165.297 82.838 165.484 82.7041C165.672 82.57 165.933 82.6134 166.066 82.8011C166.323 83.1601 166.598 83.5131 166.884 83.8501C167.033 84.0258 167.011 84.2891 166.835 84.4381C166.729 84.5279 166.592 84.5557 166.466 84.5252C166.384 84.5051 166.307 84.4596 166.247 84.3899ZM164.195 81.3505C163.978 80.9386 163.776 80.513 163.595 80.0857C163.505 79.8734 163.605 79.6287 163.817 79.5388C164.029 79.4488 164.274 79.5481 164.364 79.7602C164.536 80.1664 164.727 80.5706 164.933 80.9622C165.04 81.166 164.962 81.4184 164.758 81.5256C164.664 81.5749 164.561 81.585 164.465 81.5618C164.353 81.5343 164.253 81.4608 164.195 81.3505ZM162.854 77.9358C162.732 77.4865 162.629 77.027 162.546 76.5697C162.505 76.343 162.655 76.1259 162.882 76.0848C163.109 76.0438 163.326 76.1944 163.367 76.4211C163.446 76.8552 163.544 77.2916 163.659 77.7183C163.719 77.9408 163.588 78.1697 163.365 78.2298C163.295 78.2487 163.224 78.2485 163.158 78.2324C163.015 78.1976 162.895 78.088 162.854 77.9358ZM162.295 74.3079C162.276 73.8441 162.277 73.3734 162.296 72.9086C162.306 72.6783 162.501 72.4996 162.731 72.5096C162.961 72.5195 163.14 72.714 163.13 72.9442C163.111 73.3858 163.111 73.8328 163.129 74.2734C163.139 74.5036 162.96 74.6979 162.73 74.7075C162.69 74.7092 162.651 74.7052 162.613 74.6961C162.437 74.6532 162.303 74.498 162.295 74.3079ZM162.547 70.6499C162.608 70.3132 162.679 69.9742 162.76 69.6425C162.79 69.5223 162.82 69.403 162.852 69.2841C162.911 69.0616 163.138 68.9241 163.362 68.9886C163.585 69.0478 163.717 69.2765 163.658 69.4992C163.628 69.6121 163.599 69.7258 163.571 69.84C163.494 70.1554 163.426 70.4775 163.368 70.7976C163.328 71.0243 163.111 71.1751 162.884 71.1343C162.876 71.1327 162.867 71.131 162.859 71.129C162.646 71.0772 162.508 70.8681 162.547 70.6499Z" fill="url(#paint11_linear_4861_121084)"/>
<path d="M184.773 89.1377C184.854 89.1573 184.941 89.1532 185.024 89.1207C185.234 89.0383 185.447 88.9498 185.655 88.8577C185.866 88.7648 185.962 88.5186 185.869 88.3078C185.776 88.097 185.53 88.0011 185.319 88.0942C185.121 88.1816 184.919 88.2655 184.719 88.3439C184.505 88.4278 184.399 88.6699 184.483 88.8845C184.535 89.016 184.646 89.1066 184.773 89.1377Z" fill="url(#paint12_linear_4861_121084)"/>
</g>
<path d="M187.641 82.5827C187.708 82.5324 187.735 82.4457 187.709 82.3666L186.973 80.1105C187.681 79.2581 188.259 78.2865 188.669 77.2223L190.996 76.7648C191.078 76.7488 191.14 76.6827 191.152 76.6003L191.543 73.7807C191.554 73.6983 191.512 73.6177 191.438 73.5801L189.324 72.506C189.219 71.3703 188.928 70.2782 188.478 69.265L189.801 67.2947C189.848 67.2257 189.845 67.1348 189.795 67.0685L188.078 64.7979C188.028 64.7316 187.941 64.7044 187.862 64.7302L185.606 65.4664C184.753 64.7581 183.782 64.1807 182.718 63.7704L182.26 61.4433C182.244 61.3616 182.178 61.2992 182.096 61.2878L179.276 60.8964C179.193 60.885 179.113 60.9271 179.075 61.0012L178.001 63.1158C176.865 63.2207 175.773 63.5117 174.76 63.961L172.79 62.6381C172.721 62.5918 172.63 62.5942 172.564 62.6445L170.293 64.3614C170.227 64.4116 170.2 64.4984 170.225 64.5774L170.962 66.8336C170.253 67.686 169.676 68.6575 169.266 69.7217L166.938 70.1793C166.857 70.1953 166.794 70.2614 166.783 70.3438L166.392 73.1634C166.38 73.2458 166.422 73.3264 166.496 73.364L168.611 74.4381C168.716 75.5738 169.007 76.6659 169.456 77.679L168.133 79.6493C168.087 79.7184 168.089 79.8093 168.14 79.8757L169.856 82.1462C169.907 82.2125 169.993 82.2397 170.072 82.2139L172.329 81.4777C173.181 82.186 174.153 82.7634 175.217 83.1738L175.674 85.5009C175.69 85.5825 175.756 85.6449 175.839 85.6564L178.658 86.0478C178.741 86.0592 178.821 86.0171 178.859 85.9429L179.933 83.8284C181.069 83.7235 182.161 83.4325 183.174 82.9832L185.144 84.3061C185.213 84.3525 185.304 84.3499 185.371 84.2997L187.641 82.5827Z" fill="url(#paint13_linear_4861_121084)"/>
<path d="M177.892 76.1279C176.43 75.535 175.722 73.8633 176.315 72.4011C176.602 71.6927 177.148 71.1387 177.852 70.841C178.556 70.5432 179.334 70.5372 180.042 70.8246C181.504 71.4176 182.211 73.0893 181.619 74.5516C181.079 75.8818 179.647 76.5871 178.292 76.2571C178.157 76.2243 178.024 76.1814 177.892 76.1279ZM178.112 71.4558C177.572 71.6841 177.154 72.1089 176.934 72.652C176.479 73.773 177.021 75.055 178.142 75.5094C179.264 75.9644 180.545 75.4217 181 74.3006C181.454 73.1797 180.912 71.8977 179.791 71.4432C179.69 71.4019 179.586 71.3687 179.482 71.3433C179.027 71.2325 178.551 71.2702 178.112 71.4558Z" fill="url(#paint14_linear_4861_121084)"/>
<path d="M177.257 80.2572C177.49 80.3139 177.727 80.3592 177.967 80.3926C178.043 80.4032 178.119 80.4124 178.195 80.4205C178.57 80.4603 178.947 80.4702 179.321 80.4501C179.326 80.4498 179.331 80.4495 179.336 80.4493C179.351 80.4485 179.365 80.4476 179.38 80.4466C179.408 80.4449 179.436 80.4429 179.464 80.4408C179.538 80.4354 179.597 80.3825 179.614 80.3141C179.618 80.2974 179.62 80.2799 179.618 80.2619C179.611 80.17 179.531 80.1014 179.44 80.1081C178.967 80.1433 178.487 80.1278 178.013 80.0619C175.661 79.7358 173.761 78.2185 172.839 76.2046C172.325 75.0844 172.115 73.8105 172.296 72.5022C172.328 72.2728 172.371 72.0467 172.425 71.8247C172.789 70.3306 173.649 69.0182 174.892 68.0782C176.32 66.9984 178.083 66.5393 179.856 66.7854C183.518 67.2941 186.081 70.685 185.573 74.3452C185.541 74.5709 185.499 74.7942 185.445 75.0141C185.213 75.9671 184.775 76.8587 184.159 77.6233C184.143 77.6431 184.132 77.6653 184.127 77.6884C184.112 77.7492 184.132 77.8161 184.184 77.8579C184.256 77.9155 184.361 77.9046 184.419 77.8325C185.065 77.0298 185.526 76.0937 185.769 75.0932C185.826 74.8624 185.87 74.6281 185.903 74.3912C186.437 70.5483 183.743 66.9882 179.902 66.4548C178.04 66.1964 176.19 66.6785 174.691 67.812C173.386 68.7988 172.483 70.1766 172.101 71.745C172.044 71.9781 171.999 72.2155 171.966 72.4562C171.707 74.3178 172.189 76.1685 173.323 77.6675C174.31 78.9728 175.688 79.8752 177.257 80.2572Z" fill="url(#paint15_linear_4861_121084)"/>
<path d="M115.245 162.875C151.917 162.875 181.646 133.147 181.646 96.4747C181.646 59.8027 151.917 30.0742 115.245 30.0742C78.5732 30.0742 48.8447 59.8027 48.8447 96.4747C48.8447 133.147 78.5732 162.875 115.245 162.875Z" fill="#3F3D56"/>
<path d="M106.881 79.1404C106.731 78.854 106.307 78.8991 106.221 79.2106C105.9 80.3639 105.125 82.3761 103.498 83.0907C103.416 83.1267 103.338 83.163 103.263 83.1997C103.189 82.9785 103.188 82.7216 103.365 82.4514C103.871 81.6784 102.958 80.6225 102.958 80.6225C102.958 80.6225 102.897 81.5524 102.19 82.1379C101.582 82.6423 101.289 83.7646 101.705 84.6853C102.586 88.1059 103.905 92.6299 98.768 95.935C93.6313 99.2401 86.3975 89.6975 86.3975 89.6975L89.9878 101.079C89.9878 101.079 95.5295 105.169 101.976 99.4185C108.422 93.6681 104.149 85.3003 104.149 85.3003C104.149 85.3003 109.065 83.3169 106.881 79.1404Z" fill="url(#paint16_linear_4861_121084)"/>
<path d="M85.4983 72.9756C85.4983 72.9756 86.9865 66.3002 79.34 68.0673C79.34 68.0673 75.6282 67.4608 75.4395 70.9641C75.4395 70.9641 73.047 72.5406 74.7988 75.5724C74.7988 75.5724 67.6883 72.826 64.5902 79.0584C61.4922 85.2909 64.3399 88.7202 67.3252 89.6134C67.3252 89.6134 64.9065 90.8278 66.0514 93.5699C67.1963 96.312 72.9941 98.245 76.419 94.9103C76.419 94.9103 86.1643 96.1982 85.9693 89.3145C85.9693 89.3145 90.5021 86.3875 85.7413 80.6987C80.9805 75.0099 85.4983 72.9756 85.4983 72.9756Z" fill="#101010"/>
<path d="M85.9186 88.4496C84.382 87.9889 79.9081 87.1385 75.6527 91.0656C74.9309 91.7316 74.636 92.7436 74.8934 93.6914C76.0364 97.8994 79.052 110.332 76.4078 115.711C76.4078 115.711 81.0675 120.847 86.1512 116.707C86.1512 116.707 88.4321 106.766 91.4196 102.402C93.4821 99.3895 88.1307 91.0885 86.7767 89.0831C86.5716 88.7795 86.2695 88.5548 85.9186 88.4496Z" fill="#3ECC5F"/>
<path d="M81.6758 80.0898C81.6758 80.0898 79.4034 86.5176 79.2324 89.3533C79.2324 89.3533 81.744 90.4953 84.1105 88.5677C84.1105 88.5677 84.3588 82.1474 84.7176 80.9978L81.6758 80.0898Z" fill="url(#paint17_linear_4861_121084)"/>
<path d="M84.8318 71.3247C84.8318 71.3247 90.7755 79.6426 87.2225 82.0586C83.6696 84.4746 79.4385 78.5635 79.4385 78.5635C79.4385 78.5635 78.0593 74.0108 79.5014 72.4664C80.9435 70.9219 84.8318 71.3247 84.8318 71.3247Z" fill="url(#paint18_linear_4861_121084)"/>
<path d="M82.0805 69.3375C82.0805 69.3375 84.811 69.9846 85.1937 71.2199C85.5764 72.4554 81.3215 73.601 80.1294 73.6571L79.1688 78.6425C79.1688 78.6425 76.3291 73.9527 77.454 71.2441C78.5788 68.5355 82.0805 69.3375 82.0805 69.3375Z" fill="black"/>
<path d="M80.5911 77.9497C80.5911 77.9497 78.2776 75.2704 77.3575 77.0171C76.4373 78.7638 79.4398 80.0751 80.4792 79.2176L80.5911 77.9497Z" fill="url(#paint19_linear_4861_121084)"/>
<path d="M92.0852 137.578C92.0677 138.029 92.8601 141.609 93.2913 143.518C93.4648 144.287 93.344 145.091 92.9528 145.774L78.0188 170.909C77.8382 171.213 77.7067 171.542 77.6267 171.887C77.353 173.066 76.7854 175.957 77.0818 178.587L77.8544 180.191L74.5131 179.433L73.7861 170.46L74.732 169.883C75.5492 169.385 76.1855 168.64 76.5498 167.755C77.9001 164.475 81.2535 156.125 82.118 152.056C83.1003 147.431 88.2359 143.675 88.2359 143.675L87.3337 141.542L92.0852 137.578Z" fill="url(#paint20_linear_4861_121084)"/>
<path d="M70.7998 176.344C70.7998 176.344 72.6041 173.484 72.8164 172.37C73.0287 171.257 73.6196 169.29 74.732 169.882C74.732 169.882 75.2562 175.291 75.0755 177.405C74.8948 179.518 77.4648 179.45 77.4648 179.45C77.4648 179.45 78.1731 179.55 78.6918 180.069C79.05 180.427 78.7938 181.048 78.2884 181.081C77.4474 181.135 76.1115 181.149 74.7089 180.878C74.2187 180.783 73.8553 180.366 73.8256 179.868L73.4553 173.642L71.1793 176.516L70.7998 176.344Z" fill="url(#paint21_linear_4861_121084)"/>
<path d="M83.1643 141.582C83.1643 141.582 82.6376 164.065 82.5662 167.258C82.4949 170.451 83.0704 177.527 86.2715 179.642L84.8786 180.674C84.8786 180.674 83.1379 179.194 81.4373 176.347C79.5269 173.148 78.9492 172.564 78.9492 172.564L79.5831 171.265C79.8606 170.697 79.9422 170.054 79.8144 169.435C79.1237 166.087 76.8159 154.951 76.1865 152.553C75.4434 149.722 75.3905 145.942 77.9756 142.777C80.5608 139.613 83.1643 141.582 83.1643 141.582Z" fill="url(#paint22_linear_4861_121084)"/>
<path d="M80.2074 181.689C80.1081 181.69 80.0237 181.619 80.0097 181.52C79.9031 180.771 79.4597 177.766 79.0968 176.988C78.6811 176.096 77.3233 172.346 79.0976 172.027C79.0976 172.027 83.5085 178.472 84.3552 179.341C85.202 180.209 86.2706 179.644 86.2706 179.644C86.2706 179.644 87.0955 179.888 87.7177 180.683C88.0138 181.061 87.738 181.617 87.2575 181.621L84.2864 181.65C83.4236 181.658 82.6475 181.134 82.3267 180.333C81.8038 179.027 80.9054 177.111 79.8583 176.261L80.4024 181.47C80.4146 181.586 80.3242 181.688 80.2074 181.689Z" fill="url(#paint23_linear_4861_121084)"/>
<path d="M86.8545 114.28C86.8545 114.28 86.185 116.414 87.2136 119.929L93.5941 142.21C93.6943 142.56 93.5054 142.927 93.1626 143.05C91.2541 143.735 84.9801 145.671 76.4156 145.08C75.9844 145.051 75.6228 144.745 75.5291 144.323C74.9647 141.783 73.0393 133.117 72.6428 131.336C71.1323 124.551 69.4456 117.233 76.8656 112.809C80.2853 114.273 83.4747 115.137 86.8545 114.28Z" fill="white"/>
<path d="M75.0437 91.9031C75.0437 91.9031 67.7841 97.9362 65.9825 106.18C64.1809 114.424 76.5906 115.3 76.5906 115.3C76.5906 115.3 78.2753 113.419 80.2754 114.09C82.2754 114.761 80.4302 110.807 78.0901 110.817C75.75 110.828 76.8341 112.678 73.5237 111.178C70.299 109.718 68.3058 105.2 76.5335 98.3522C77.0104 97.9553 77.391 97.4492 77.6201 96.8725C79.2185 92.8489 77.9507 90.2113 75.0437 91.9031Z" fill="url(#paint24_linear_4861_121084)"/>
<path d="M47.7549 95.6538C50.1668 141.188 80.4419 161.875 117.026 152.309L115.655 146.92C75.3917 155.685 53.0983 132.427 49.4423 96.5218C49.3773 95.8835 48.7708 95.4437 48.1426 95.5736L47.7549 95.6538Z" fill="#3ECC5F"/>
<path d="M110.09 146.692L114.767 155.544C115.024 156.032 115.687 156.118 116.06 155.711L124.576 146.431C125.054 145.911 124.669 145.071 123.962 145.094L110.77 145.521C110.181 145.54 109.815 146.17 110.09 146.692Z" fill="#3ECC5F"/>
<path d="M95.9557 73.7852L91.5469 78.2096L99.2065 77.7506L95.9557 73.7852Z" fill="#F2F2F2"/>
<path d="M129.85 76.9671L97.0871 77.9239C96.3783 77.9239 95.8037 77.3053 95.8037 76.5422V66.1307C95.8037 65.3926 96.3425 64.7848 97.0273 64.7505L129.71 63.1109C130.442 63.0742 131.053 63.7028 131.053 64.4911V74.8241C131.053 75.5872 130.558 76.9671 129.85 76.9671Z" fill="#F2F2F2"/>
<path d="M128.796 76.3977L97.7747 77.2733C97.1036 77.2733 96.5596 76.7072 96.5596 76.0088V66.48C96.5596 65.8045 97.0698 65.2483 97.7182 65.2168L128.664 63.7162C129.357 63.6827 129.936 64.2579 129.936 64.9794V74.4363C129.936 75.1347 129.468 76.3977 128.796 76.3977Z" fill="#F2F2F2"/>
<path d="M62.5072 62.0497C62.6296 61.8029 62.9289 61.7022 63.1755 61.8247C63.6548 62.0625 64.1515 62.2831 64.6519 62.4803C64.9051 62.58 65.0309 62.864 64.9364 63.1179C64.9353 63.1209 64.9341 63.1239 64.933 63.127C64.832 63.3832 64.5425 63.509 64.2862 63.408C63.7595 63.2004 63.2366 62.9683 62.732 62.7178C62.5013 62.6034 62.3984 62.3341 62.4863 62.0978C62.4924 62.0817 62.4992 62.0655 62.5072 62.0497ZM67.1534 63.2729C67.6758 63.4 68.2085 63.5059 68.7373 63.5878C69.0092 63.6299 69.1958 63.8847 69.1538 64.1568C69.1106 64.4299 68.8567 64.6154 68.5846 64.5733C68.0282 64.4872 67.4675 64.3757 66.9178 64.2421C66.6503 64.177 66.4861 63.9072 66.5512 63.6397C66.5559 63.6203 66.5617 63.6013 66.5685 63.583C66.6554 63.3495 66.9053 63.2126 67.1534 63.2729ZM71.3507 63.8078C71.8868 63.8154 72.4297 63.7997 72.9646 63.7612C73.2392 63.7415 73.4779 63.9481 73.4977 64.2228C73.5172 64.4972 73.3109 64.7359 73.0362 64.7559C72.4728 64.7965 71.901 64.8129 71.3367 64.8049C71.0613 64.801 70.8413 64.5746 70.8451 64.2993C70.8459 64.2405 70.8569 64.1843 70.8762 64.1323C70.9477 63.9403 71.1341 63.8047 71.3507 63.8078ZM75.5622 63.3905C76.0871 63.2779 76.6131 63.1412 77.1257 62.9843C77.3891 62.9038 77.6679 63.052 77.7485 63.3152C77.8287 63.5786 77.6806 63.8572 77.4176 63.9379C76.8777 64.1031 76.3239 64.2469 75.7716 64.3656C75.5024 64.4233 75.2372 64.2519 75.1794 63.9827C75.1588 63.8863 75.1674 63.7905 75.1994 63.7045C75.2568 63.5502 75.3893 63.4276 75.5622 63.3905ZM79.5757 62.0453C80.0613 61.8196 80.5442 61.5698 81.0105 61.3028C81.2497 61.1661 81.5542 61.249 81.691 61.488C81.8279 61.7271 81.7449 62.0318 81.5058 62.1683C81.0151 62.4492 80.507 62.712 79.9961 62.9495C79.7465 63.0656 79.4499 62.9574 79.3338 62.7075C79.2753 62.5817 79.2738 62.444 79.3186 62.3234C79.3627 62.2048 79.4518 62.1029 79.5757 62.0453ZM83.1916 59.8457C83.6158 59.5176 84.0311 59.1673 84.4263 58.8043C84.629 58.6181 84.9445 58.6314 85.1307 58.8341C85.3171 59.0369 85.3038 59.3522 85.101 59.5387C84.6853 59.9207 84.248 60.2894 83.8015 60.6346C83.5836 60.803 83.2706 60.7629 83.102 60.5451C82.9926 60.4035 82.9713 60.2219 83.0294 60.0657C83.0608 59.9815 83.1151 59.9047 83.1916 59.8457ZM90.9481 43.0325C91.2228 43.0132 91.4612 43.2201 91.4805 43.4949C91.52 44.0576 91.5355 44.6298 91.5264 45.1953C91.522 45.4706 91.2952 45.6903 91.0198 45.6858C90.7446 45.6814 90.525 45.4546 90.5294 45.1793C90.538 44.6424 90.5233 44.0991 90.4857 43.5647C90.4805 43.4914 90.4915 43.4208 90.5156 43.3561C90.5816 43.1785 90.7467 43.0466 90.9481 43.0325ZM86.228 56.901C86.5685 56.4871 86.8952 56.0533 87.1988 55.6116C87.355 55.3847 87.6654 55.3273 87.8923 55.4833C88.1193 55.6394 88.1755 55.9491 88.0206 56.1767C87.7007 56.6417 87.3568 57.0986 86.9981 57.5344C86.8232 57.747 86.509 57.7777 86.2963 57.6027C86.1276 57.4639 86.0735 57.2375 86.1456 57.0437C86.1644 56.9933 86.1919 56.945 86.228 56.901ZM90.8742 47.3776C91.1462 47.4202 91.3321 47.6755 91.2895 47.9475C91.202 48.5048 91.0892 49.0656 90.9548 49.6145C90.8903 49.8825 90.6192 50.0455 90.3517 49.9801C90.0843 49.9145 89.9207 49.6445 89.9861 49.377C90.114 48.8554 90.2211 48.3224 90.3042 47.7928C90.3095 47.759 90.3183 47.7266 90.3297 47.6958C90.4107 47.4782 90.636 47.3402 90.8742 47.3776ZM88.5299 53.3522C88.7691 52.8729 88.9906 52.3768 89.1884 51.8778C89.2898 51.6216 89.5795 51.4964 89.8357 51.5979C90.0883 51.6981 90.2136 51.9817 90.1193 52.2352C90.1181 52.2385 90.1168 52.2419 90.1154 52.2451C89.9074 52.7706 89.6741 53.2928 89.4226 53.7974C89.2994 54.0438 89.0001 54.1439 88.7536 54.021C88.5235 53.9063 88.421 53.6373 88.5088 53.4015C88.5148 53.3849 88.522 53.3684 88.5299 53.3522Z" fill="#F2F2F2"/>
<path d="M89.9551 39.8956C89.9209 39.9876 89.9133 40.0907 89.9396 40.193C90.0036 40.442 90.0633 40.6965 90.1176 40.9495C90.1751 41.2187 90.4402 41.3904 90.7094 41.3328C90.9787 41.2753 91.1507 41.0102 91.0926 40.7409C91.0358 40.4748 90.9729 40.2071 90.9056 39.9451C90.8372 39.6784 90.5653 39.5176 90.2987 39.5861C90.1342 39.6283 90.0102 39.7477 89.9551 39.8956Z" fill="#F2F2F2"/>
<path d="M80.7245 27.8175C80.6405 28.043 80.7303 28.3024 80.9463 28.4248C81.17 28.5514 81.3949 28.6849 81.6144 28.8215C81.8483 28.9669 82.1558 28.8953 82.3012 28.6614C82.4472 28.4266 82.3749 28.12 82.1412 27.9746C81.91 27.8309 81.6732 27.6903 81.4377 27.557C81.1981 27.4213 80.8939 27.5056 80.7581 27.7452C80.7448 27.7687 80.7336 27.793 80.7245 27.8175Z" fill="#F2F2F2"/>
<path d="M53.3147 37.0067C53.4233 36.7536 53.7165 36.6364 53.9697 36.7451C54.2227 36.8537 54.3395 37.1464 54.2312 37.3999C54.0244 37.8817 53.8351 38.3798 53.6658 38.886C53.5798 39.1462 53.2958 39.288 53.0347 39.2007C52.7736 39.1134 52.6327 38.8309 52.7199 38.5697C52.7932 38.3504 52.8699 38.1331 52.9499 37.9181C53.0641 37.6114 53.1868 37.3047 53.3147 37.0067ZM52.6176 40.8021C52.8881 40.8533 53.066 41.1142 53.0147 41.3846C52.9166 41.9042 52.8391 42.4333 52.7849 42.9576C52.7574 43.2313 52.5116 43.4306 52.2375 43.4023C51.9637 43.374 51.7646 43.1289 51.793 42.8551C51.8501 42.303 51.9315 41.7459 52.035 41.1993C52.0403 41.171 52.0481 41.1436 52.0578 41.1175C52.141 40.894 52.3753 40.7563 52.6176 40.8021ZM54.5546 34.5889C54.841 34.1138 55.1516 33.6443 55.4781 33.1938C55.6397 32.9708 55.9515 32.921 56.1746 33.0826C56.3975 33.2441 56.447 33.5557 56.2858 33.779C55.9757 34.2068 55.6807 34.6525 55.4089 35.1036C55.2666 35.3395 54.9603 35.4155 54.7243 35.2733C54.5157 35.1476 54.4323 34.8932 54.5143 34.6729C54.5249 34.6442 54.5383 34.6161 54.5546 34.5889ZM52.1806 45.0562C52.4558 45.0467 52.6867 45.2621 52.6961 45.5373C52.7142 46.0648 52.7552 46.5979 52.8178 47.1216C52.8506 47.3952 52.6555 47.6432 52.3819 47.6759C52.1085 47.7085 51.8604 47.5134 51.8277 47.2401C51.7618 46.6885 51.7186 46.1271 51.6995 45.5716C51.6973 45.5045 51.7082 45.44 51.7303 45.3806C51.7986 45.1969 51.9726 45.0633 52.1806 45.0562ZM57.2185 31.1098C57.6021 30.7096 58.0083 30.3202 58.4258 29.9524C58.6324 29.7703 58.9473 29.7902 59.1294 29.9967C59.3116 30.2034 59.2917 30.5184 59.085 30.7005C58.6886 31.0499 58.3027 31.4198 57.9385 31.7999C57.7479 31.9987 57.4322 32.0054 57.2334 31.8148C57.0853 31.6728 57.0439 31.4614 57.1111 31.2807C57.1341 31.2188 57.17 31.1605 57.2185 31.1098ZM60.5808 28.2994C61.0438 27.9919 61.5251 27.7005 62.0114 27.433C62.2528 27.3004 62.5559 27.3883 62.6887 27.6297C62.8215 27.8713 62.7334 28.1744 62.4919 28.3068C62.0299 28.561 61.5724 28.838 61.1324 29.13C60.903 29.2824 60.5936 29.2199 60.4412 28.9905C60.3495 28.8522 60.3357 28.6849 60.3894 28.5404C60.4249 28.4451 60.4897 28.3598 60.5808 28.2994ZM64.4759 26.2883C64.9951 26.0888 65.5286 25.9091 66.0611 25.7541C66.3256 25.6771 66.6023 25.8291 66.6793 26.0935C66.7563 26.3582 66.6042 26.6346 66.3399 26.7116C65.8337 26.8588 65.327 27.0296 64.8335 27.2192C64.5765 27.318 64.288 27.1896 64.1893 26.9326C64.1439 26.8145 64.1465 26.6899 64.1873 26.58C64.2355 26.4506 64.3369 26.3417 64.4759 26.2883ZM68.7168 25.1748C69.2669 25.0937 69.827 25.0352 70.3813 25.001C70.6562 24.984 70.8928 25.193 70.9097 25.4679C70.9267 25.7423 70.7175 25.9792 70.4427 25.9962C69.9165 26.0287 69.3848 26.0843 68.862 26.1613C68.5896 26.2015 68.3363 26.0133 68.2962 25.7408C68.2835 25.6548 68.2936 25.5707 68.3219 25.4946C68.3834 25.3297 68.5303 25.2024 68.7168 25.1748ZM73.101 25.0204C73.6542 25.0624 74.2129 25.1287 74.7618 25.2175C75.0336 25.2614 75.2185 25.5175 75.1745 25.7893C75.1305 26.0603 74.8746 26.2459 74.6027 26.202C74.0812 26.1176 73.5506 26.0547 73.0252 26.0147C72.7507 25.9938 72.545 25.7542 72.5659 25.4797C72.5696 25.4319 72.5797 25.3861 72.5957 25.3433C72.6713 25.1403 72.8742 25.0031 73.101 25.0204ZM77.4077 25.8315C77.7988 25.9505 78.1911 26.083 78.5735 26.2254C78.712 26.2769 78.8494 26.3299 78.9862 26.3841C79.242 26.4858 79.3733 26.7744 79.2654 27.0315C79.1638 27.2875 78.874 27.4126 78.6179 27.3109C78.4881 27.2594 78.3572 27.2089 78.2256 27.1599C77.862 27.0246 77.4893 26.8986 77.1174 26.7854C76.8539 26.7053 76.7054 26.4267 76.7855 26.1633C76.7886 26.1534 76.7918 26.1436 76.7954 26.1341C76.8866 25.8891 77.1542 25.7543 77.4077 25.8315Z" fill="#F2F2F2"/>
<path d="M52.3526 49.622C52.318 49.7149 52.3107 49.8189 52.3376 49.922C52.406 50.1831 52.4813 50.4477 52.5613 50.7085C52.642 50.9718 52.9209 51.1198 53.1841 51.039C53.4474 50.9582 53.5956 50.6797 53.5147 50.4162C53.4387 50.1685 53.3673 49.9171 53.3022 49.6692C53.2326 49.4029 52.96 49.2435 52.6936 49.3133C52.5303 49.356 52.4073 49.475 52.3526 49.622Z" fill="#F2F2F2"/>
<path d="M59.7278 53.946C59.7782 54.0318 59.8773 54.0762 59.9747 54.0567L62.7557 53.4988C63.6684 54.4589 64.7407 55.2803 65.9463 55.9163L66.1635 58.7426C66.1711 58.8417 66.2408 58.9251 66.337 58.9502L69.6289 59.8095C69.7251 59.8347 69.8267 59.796 69.8817 59.7132L71.4527 57.3538C72.8154 57.3882 74.1524 57.1958 75.4179 56.8044L77.5713 58.6505C77.6467 58.7152 77.7549 58.7249 77.8407 58.6746L80.7761 56.9546C80.8619 56.9044 80.9064 56.8052 80.8867 56.7077L80.3289 53.9267C81.2889 53.0141 82.1103 51.9418 82.7464 50.7361L85.5726 50.519C85.6717 50.5114 85.7551 50.4417 85.7802 50.3455L86.6397 47.0536C86.6648 46.9573 86.6261 46.8558 86.5434 46.8007L84.1839 45.2297C84.2184 43.867 84.026 42.53 83.6345 41.2646L85.4806 39.1112C85.5453 39.0357 85.555 38.9275 85.5048 38.8417L83.7847 35.9063C83.7345 35.8205 83.6353 35.7761 83.5379 35.7956L80.7568 36.3535C79.8442 35.3934 78.7719 34.5721 77.5662 33.936L77.349 31.1098C77.3414 31.0106 77.2718 30.9273 77.1756 30.9021L73.8836 30.0427C73.7874 30.0176 73.6859 30.0563 73.6308 30.1391L72.0598 32.4985C70.6971 32.4641 69.3601 32.6565 68.0946 33.0479L65.9413 31.2019C65.8658 31.1371 65.7576 31.1275 65.6717 31.1777L62.7363 32.8978C62.6506 32.9481 62.6061 33.0472 62.6256 33.1447L63.1835 35.9257C62.2235 36.8383 61.4021 37.9106 60.766 39.1162L57.9398 39.3334C57.8407 39.341 57.7573 39.4107 57.7322 39.5069L56.8728 42.7988C56.8477 42.895 56.8864 42.9966 56.9691 43.0517L59.3285 44.6226C59.2941 45.9854 59.4865 47.3224 59.8779 48.5878L58.0319 50.7412C57.9671 50.8167 57.9575 50.9249 58.0078 51.0106L59.7278 53.946Z" fill="#3ECC5F"/>
<path d="M68.7594 43.2796C69.6678 41.6272 71.7511 41.0218 73.4038 41.9303C74.2043 42.3703 74.7855 43.0958 75.0403 43.973C75.2952 44.8501 75.1934 45.7741 74.753 46.5746C73.8445 48.2271 71.7612 48.8324 70.1086 47.924C68.6053 47.0975 67.9686 45.2986 68.5502 43.7362C68.6078 43.5813 68.6776 43.4286 68.7594 43.2796ZM74.2742 44.1955C74.0788 43.5229 73.6332 42.9667 73.0193 42.6292C71.7525 41.9328 70.1549 42.3969 69.4584 43.6639C68.7613 44.931 69.2261 46.5283 70.4931 47.2249C71.76 47.9212 73.3575 47.4572 74.054 46.1902C74.1172 46.0753 74.1711 45.9573 74.216 45.8366C74.411 45.3127 74.4329 44.7422 74.2742 44.1955Z" fill="#F2F2F2"/>
<path d="M63.9463 41.9447C63.8464 42.213 63.7595 42.4879 63.6861 42.7687C63.663 42.8571 63.6414 42.9459 63.6211 43.035C63.5214 43.4743 63.4568 43.9209 63.4283 44.3678C63.4279 44.3739 63.4275 44.3799 63.4271 44.3861C63.4261 44.4033 63.425 44.4207 63.4241 44.438C63.4222 44.4717 63.4207 44.5054 63.4191 44.539C63.4153 44.6275 63.4698 44.7051 63.5486 44.7346C63.5677 44.7417 63.5884 44.746 63.6099 44.7469C63.7199 44.7517 63.8126 44.6661 63.8176 44.5562C63.8419 43.9899 63.9276 43.4225 64.0721 42.8697C64.7886 40.1232 66.8555 38.0811 69.3752 37.2681C70.7766 36.8157 72.3182 36.7438 73.8457 37.1427C74.1136 37.2125 74.3759 37.2954 74.6318 37.3908C76.3542 38.0321 77.7916 39.2362 78.7332 40.8433C79.815 42.6893 80.113 44.8461 79.5726 46.9162C78.456 51.1914 74.0723 53.7588 69.799 52.6431C69.5355 52.5744 69.2765 52.4925 69.023 52.398C67.9244 51.9889 66.9274 51.344 66.1061 50.5059C66.0848 50.4842 66.06 50.4685 66.0333 50.4586C65.9632 50.4325 65.8811 50.4471 65.8242 50.5031C65.7457 50.5805 65.7439 50.7064 65.8214 50.7852C66.6837 51.6651 67.7303 52.3423 68.8837 52.7718C69.1498 52.871 69.4217 52.9569 69.6982 53.0291C74.1848 54.2005 78.7877 51.502 79.9587 47.017C80.526 44.8437 80.213 42.5796 79.0774 40.6417C78.0889 38.9545 76.5798 37.6905 74.7717 37.0171C74.5031 36.9171 74.2276 36.8301 73.9466 36.7567C71.7731 36.1893 69.509 36.5022 67.5711 37.6377C65.8836 38.6264 64.6195 40.1361 63.9463 41.9447Z" fill="#F2F2F2"/>
<path d="M44.2361 73.4586C44.1896 73.5834 44.2282 73.7288 44.3404 73.8126C44.5498 73.9691 44.7668 74.1215 44.9855 74.2652C45.1275 74.3587 45.3183 74.3193 45.412 74.1772C45.5062 74.0353 45.466 73.8441 45.3239 73.7506C45.1157 73.6136 44.9088 73.4684 44.7089 73.3191C44.5729 73.2173 44.3799 73.2452 44.2778 73.3814C44.2599 73.4057 44.2461 73.4316 44.2361 73.4586Z" fill="#F2F2F2"/>
<path d="M46.2681 74.666C46.3435 74.5135 46.5279 74.4508 46.6805 74.5261C47.0656 74.7158 47.4649 74.8879 47.8671 75.0377C47.9519 75.0692 48.0375 75.0999 48.1235 75.1299C48.284 75.1859 48.3689 75.3615 48.3129 75.5221C48.254 75.6718 48.0813 75.7674 47.9205 75.7115C47.8304 75.6801 47.741 75.648 47.6522 75.6149C47.2305 75.458 46.8119 75.2774 46.4081 75.0783C46.2652 75.008 46.2012 74.8413 46.2556 74.695C46.2593 74.6853 46.2635 74.6757 46.2681 74.666ZM49.629 75.5537C50.1377 75.6639 50.6577 75.7437 51.1746 75.7905C51.3441 75.806 51.4688 75.9555 51.4535 76.125C51.438 76.2935 51.2885 76.4194 51.1189 76.4039C50.5772 76.3548 50.032 76.2713 49.4987 76.1556C49.3324 76.1195 49.2268 75.9556 49.2628 75.7892C49.2659 75.7747 49.2703 75.7604 49.2754 75.7467C49.328 75.6056 49.4776 75.5209 49.629 75.5537ZM52.7381 75.8344C53.2575 75.8167 53.7811 75.7661 54.2949 75.6841C54.4627 75.6573 54.6207 75.7718 54.6474 75.9396C54.6742 76.1082 54.5601 76.2656 54.3919 76.2924C53.8532 76.3784 53.3037 76.4313 52.7592 76.45C52.5892 76.4558 52.4465 76.3227 52.4408 76.1528C52.4396 76.1114 52.4463 76.0715 52.46 76.0349C52.5023 75.9214 52.6097 75.8389 52.7381 75.8344ZM55.8212 75.3426C56.3212 75.1978 56.8168 75.0206 57.2935 74.816C57.45 74.749 57.631 74.8213 57.698 74.9776C57.7648 75.1336 57.6928 75.3149 57.5365 75.3821C57.0362 75.5967 56.5169 75.7824 55.9925 75.9343C55.8292 75.9816 55.6583 75.8873 55.6109 75.724C55.5921 75.6581 55.5959 75.591 55.6182 75.5313C55.651 75.4429 55.7237 75.3707 55.8212 75.3426ZM58.6908 74.1129C59.1403 73.8511 59.5777 73.5589 59.9912 73.2446C60.1264 73.1417 60.3197 73.1681 60.4227 73.3035C60.5257 73.4389 60.4996 73.6322 60.3638 73.735C59.9305 74.0645 59.472 74.3706 59.001 74.6452C58.854 74.7307 58.6654 74.6811 58.5799 74.5343C58.5315 74.4513 58.5263 74.355 58.5573 74.2716C58.5813 74.2072 58.6268 74.1503 58.6908 74.1129ZM61.1749 72.224C61.5468 71.861 61.8994 71.4714 62.2231 71.0657C62.329 70.9328 62.5229 70.911 62.6557 71.0171C62.7886 71.1232 62.8104 71.3163 62.7045 71.45C62.3652 71.8753 61.9952 72.2841 61.605 72.6649C61.4832 72.7835 61.2883 72.7812 61.1697 72.6596C61.0837 72.5714 61.0612 72.445 61.1014 72.3369C61.1168 72.2956 61.1411 72.2569 61.1749 72.224ZM63.1208 69.7859C63.3914 69.3442 63.6379 68.8795 63.8531 68.4046C63.9235 68.2498 64.1061 68.1812 64.2608 68.2515C64.4157 68.3216 64.4821 68.5029 64.4142 68.6593C64.1882 69.157 63.9298 69.6443 63.646 70.1076C63.5571 70.2526 63.3675 70.2982 63.2225 70.2094C63.0949 70.1312 63.0443 69.9749 63.0947 69.8397C63.1015 69.8213 63.1101 69.8033 63.1208 69.7859ZM65.143 65.1769C65.3104 65.2075 65.4212 65.3677 65.3906 65.5352C65.3061 65.9984 65.1947 66.4649 65.0601 66.9206C65.0401 66.99 65.019 67.0587 64.9976 67.1274C64.9517 67.2903 64.7739 67.3801 64.6114 67.3287C64.449 67.2778 64.359 67.105 64.4098 66.9426C64.4302 66.8783 64.4498 66.8136 64.469 66.7474C64.598 66.3113 64.7042 65.8663 64.7849 65.4246C64.7881 65.4064 64.7931 65.3888 64.7993 65.3722C64.8504 65.2347 64.994 65.1497 65.143 65.1769Z" fill="#F2F2F2"/>
<path d="M39.9039 58.3399C40.0976 57.8393 40.3238 57.3464 40.5755 56.8743C40.6557 56.7244 40.8422 56.6676 40.9924 56.7477C41.1426 56.8279 41.1972 57.0147 41.119 57.1646C40.8786 57.6146 40.6632 58.0849 40.4783 58.5624C40.417 58.7211 40.2385 58.7998 40.0801 58.7384C39.9228 58.6775 39.8438 58.5015 39.9025 58.3439C39.9024 58.3438 39.9034 58.3412 39.9039 58.3399ZM39.7876 59.6542C39.9523 59.6961 40.052 59.8638 40.0099 60.0285C39.8838 60.5244 39.7863 61.0328 39.7204 61.5399C39.6982 61.7075 39.5441 61.8276 39.3752 61.8054C39.2065 61.7835 39.0878 61.6291 39.1095 61.4604C39.1786 60.929 39.2807 60.3961 39.4131 59.8766C39.4159 59.8656 39.4192 59.8551 39.4231 59.8447C39.4772 59.6993 39.6334 59.6149 39.7876 59.6542ZM41.421 55.5002C41.7302 55.0611 42.0687 54.637 42.4273 54.2401C42.5413 54.1139 42.7362 54.104 42.8623 54.218C42.9886 54.3319 42.9983 54.526 42.8846 54.6529C42.5424 55.0316 42.2196 55.4359 41.9244 55.8548C41.8265 55.9939 41.6344 56.0272 41.4955 55.9294C41.3786 55.8471 41.3364 55.6982 41.384 55.5702C41.393 55.546 41.4053 55.5225 41.421 55.5002ZM39.3103 62.7645C39.4803 62.7656 39.6173 62.9045 39.6162 63.0745C39.6129 63.586 39.6411 64.1028 39.7001 64.6106C39.7194 64.7794 39.5983 64.9322 39.4299 64.952C39.2609 64.9716 39.1079 64.8506 39.0883 64.6816C39.0263 64.1491 38.9967 63.607 39.0003 63.0704C39.0006 63.0333 39.0074 62.9978 39.0196 62.965C39.0635 62.8473 39.1773 62.7637 39.3103 62.7645ZM43.5786 53.1123C43.9834 52.7612 44.4139 52.4312 44.8583 52.1314C44.9993 52.0362 45.1908 52.0735 45.2859 52.2145C45.3811 52.3555 45.3442 52.5469 45.2029 52.6421C44.7788 52.9279 44.3683 53.2427 43.9824 53.5777C43.854 53.689 43.6595 53.6754 43.5479 53.5467C43.4716 53.4587 43.4541 53.3394 43.4921 53.2372C43.5094 53.1907 43.5384 53.1473 43.5786 53.1123ZM46.2466 51.3114C46.7246 51.0669 47.2218 50.8494 47.724 50.6648C47.8835 50.6061 48.0604 50.6878 48.1191 50.8475C48.1779 51.0069 48.0961 51.1841 47.9363 51.2428C47.4574 51.419 46.9832 51.6266 46.527 51.8599C46.3756 51.9373 46.19 51.8772 46.1126 51.7258C46.0717 51.6458 46.0691 51.5563 46.0982 51.478C46.1242 51.4084 46.1753 51.3478 46.2466 51.3114ZM49.2692 50.2009C49.7922 50.0779 50.3273 49.986 50.8593 49.9276C51.0286 49.9091 51.1805 50.0311 51.1991 50.2003C51.2177 50.3693 51.0954 50.5212 50.9266 50.5399C50.4192 50.5954 49.909 50.6831 49.4105 50.8007C49.2449 50.8396 49.079 50.7369 49.0402 50.5714C49.0255 50.5099 49.0307 50.4486 49.0512 50.3937C49.0859 50.3004 49.1651 50.2256 49.2692 50.2009Z" fill="#F2F2F2"/>
<path d="M39.3855 66.1072C39.3648 66.1628 39.3599 66.225 39.375 66.2871C39.4372 66.5433 39.5074 66.7987 39.5833 67.0464C39.6333 67.2089 39.8055 67.3005 39.9681 67.2507C40.1303 67.2004 40.2219 67.0285 40.1723 66.8658C40.0997 66.6296 40.0329 66.3859 39.9734 66.1415C39.9332 65.9762 39.7665 65.8748 39.6013 65.9151C39.4983 65.9402 39.42 66.0145 39.3855 66.1072Z" fill="#F2F2F2"/>
<path d="M44.3539 69.2189C44.3876 69.2763 44.4539 69.306 44.5191 69.293L46.38 68.9197C46.9907 69.5621 47.7083 70.1117 48.515 70.5373L48.6604 72.4285C48.6655 72.4949 48.7121 72.5506 48.7764 72.5675L50.9792 73.1425C51.0435 73.1594 51.1115 73.1335 51.1484 73.0781L52.1996 71.4993C53.1115 71.5223 54.0062 71.3936 54.8529 71.1317L56.2939 72.367C56.3444 72.4103 56.4168 72.4167 56.4742 72.3831L58.4384 71.2321C58.4958 71.1985 58.5256 71.1321 58.5125 71.0669L58.1392 69.206C58.7816 68.5953 59.3313 67.8777 59.7569 67.071L61.6481 66.9257C61.7145 66.9206 61.7702 66.874 61.787 66.8096L62.3621 64.6068C62.3789 64.5424 62.353 64.4745 62.2977 64.4376L60.7188 63.3863C60.7419 62.4745 60.6131 61.5798 60.3512 60.7331L61.5866 59.2921C61.6299 59.2416 61.6363 59.1691 61.6027 59.1118L60.4517 57.1475C60.4181 57.0901 60.3517 57.0604 60.2865 57.0735L58.4256 57.4468C57.8149 56.8043 57.0974 56.2547 56.2906 55.8291L56.1453 53.9378C56.1402 53.8715 56.0936 53.8157 56.0292 53.7989L53.8264 53.2238C53.762 53.207 53.6941 53.2329 53.6572 53.2883L52.606 54.8671C51.6941 54.8441 50.7994 54.9728 49.9526 55.2347L48.5117 53.9994C48.4612 53.9561 48.3888 53.9497 48.3314 53.9833L46.3672 55.1343C46.3097 55.1679 46.28 55.2343 46.2931 55.2995L46.6664 57.1604C46.024 57.7711 45.4744 58.4886 45.0487 59.2955L43.1575 59.4407C43.0912 59.4459 43.0354 59.4924 43.0186 59.5568L42.4436 61.7596C42.4267 61.824 42.4526 61.892 42.508 61.9288L44.0868 62.98C44.0637 63.8919 44.1925 64.7866 44.4544 65.6334L43.2191 67.0744C43.1758 67.1249 43.1693 67.1973 43.203 67.2547L44.3539 69.2189Z" fill="#3ECC5F"/>
<path d="M50.3614 62.0602C50.6611 61.5147 51.1553 61.1187 51.7529 60.9452C52.3503 60.7715 52.9797 60.841 53.525 61.1409C54.6505 61.7596 55.0618 63.1764 54.4442 64.3046C53.8251 65.4301 52.4059 65.8423 51.2807 65.2236C50.7354 64.9239 50.3394 64.4298 50.1658 63.8323C50.0247 63.3466 50.0442 62.8397 50.2175 62.3741C50.2575 62.2671 50.3055 62.1621 50.3614 62.0602ZM53.2285 61.6807C52.8273 61.4601 52.3643 61.4089 51.9246 61.5367C51.4853 61.6643 51.1217 61.9557 50.9012 62.3567C50.6812 62.7581 50.6296 63.2207 50.7574 63.6605C50.8849 64.0999 51.1764 64.4633 51.5773 64.6838C52.4053 65.139 53.4491 64.8358 53.9045 64.0079C53.9455 63.9331 53.9803 63.8567 54.0092 63.7791C54.3007 62.9963 53.9816 62.0947 53.2285 61.6807Z" fill="#F2F2F2"/>
<path d="M47.0113 61.1334C46.9433 61.316 46.8841 61.5036 46.8336 61.696C46.7337 62.0781 46.6727 62.4707 46.6521 62.864C46.6513 62.8817 46.6505 62.8994 46.6497 62.917C46.6438 63.0538 46.7278 63.1735 46.8495 63.219C46.8791 63.23 46.911 63.2366 46.9442 63.238C47.1141 63.2453 47.257 63.1131 47.2649 62.9435C47.2807 62.5761 47.3362 62.2089 47.4296 61.8518L47.4297 61.8517C47.4347 61.8321 47.4401 61.8125 47.4454 61.793C47.6741 60.95 48.1044 60.1959 48.6927 59.581C49.012 59.2472 49.3784 58.9545 49.7849 58.7112C49.7883 58.7093 49.7915 58.7073 49.7948 58.7053C49.8051 58.6993 49.8151 58.6932 49.8253 58.6874C51.0204 57.9873 52.4166 57.7942 53.7567 58.1441C53.9302 58.1892 54.0999 58.2429 54.2656 58.3046C55.3806 58.7197 56.3111 59.4993 56.9209 60.5398C57.6211 61.7349 57.8138 63.131 57.464 64.471C57.1139 65.8101 56.2632 66.9349 55.0684 67.6353C53.8733 68.3354 52.4771 68.5285 51.1369 68.1786C50.9664 68.1342 50.7987 68.0811 50.6347 68.02C49.9233 67.7551 49.2781 67.3376 48.7464 66.7951C48.7136 66.7617 48.6752 66.7373 48.634 66.7221C48.5257 66.6819 48.3989 66.7044 48.3109 66.7908C48.1898 66.9102 48.1874 67.1047 48.3067 67.2264C48.9016 67.8334 49.6237 68.3006 50.4193 68.5971C50.603 68.6655 50.7905 68.7248 50.9812 68.7747C52.4808 69.1661 54.0428 68.9502 55.3799 68.1667C56.7167 67.3832 57.6695 66.1272 58.06 64.6268C58.4515 63.1274 58.2358 61.5655 57.4521 60.2284C56.7702 59.0644 55.729 58.1923 54.4816 57.7278C54.2964 57.6589 54.1063 57.5987 53.9124 57.5481C51.0095 56.7904 48.0361 58.38 47.0113 61.1334Z" fill="#F2F2F2"/>
<path d="M173.053 62.2631C159.452 22.7408 100.118 18.4063 86.3037 51.2617L91.3204 52.6741C107.487 22.6994 157.775 28.2592 171.73 65.4567L172.418 64.8579C173.12 64.2471 173.372 63.1925 173.053 62.2631Z" fill="url(#paint25_linear_4861_121084)"/>
<path d="M95.9071 47.9502L87.1513 43.6771C86.6688 43.4417 86.124 43.8133 86.0883 44.4021L85.2724 57.8475C85.2266 58.6022 86.0134 59.0462 86.5261 58.5549L96.0978 49.3826C96.5255 48.9727 96.4228 48.2019 95.9071 47.9502Z" fill="url(#paint26_linear_4861_121084)"/>
<path d="M173.652 110.695C174.885 111.97 176.689 113.06 177.957 113.737C176.118 116.087 173.616 118.451 170.291 120.779L169.364 122.953L166.222 119.308C166.222 119.308 171.708 116.467 173.652 110.695Z" fill="url(#paint27_linear_4861_121084)"/>
<path d="M158.285 181.029C158.283 180.963 158.286 180.896 158.302 180.828C159.236 176.854 164.152 174.309 164.152 174.309L166.118 174.431C167.303 177.901 167.193 180.043 167.027 180.999C167.022 181.026 167.015 181.052 167.008 181.078C165.39 181.248 162.058 181.397 158.285 181.029Z" fill="url(#paint28_linear_4861_121084)"/>
<path d="M167.008 181.08C166.926 181.4 166.695 181.651 166.395 181.72C164.099 182.241 160.43 181.91 158.889 181.734C158.55 181.695 158.297 181.385 158.285 181.031C162.058 181.399 165.391 181.251 167.008 181.08Z" fill="url(#paint29_linear_4861_121084)"/>
<path d="M166.861 171.496L166.094 175.513C166.037 175.807 165.815 176.031 165.543 176.061C165.209 176.098 164.734 176.124 164.254 176.061C163.824 176.005 163.518 175.574 163.587 175.105L164.108 171.54L166.861 171.496Z" fill="url(#paint30_linear_4861_121084)"/>
<path d="M149.783 181.319C151.951 181.223 153.068 180.949 153.644 180.703C153.649 180.919 153.652 181.138 153.648 181.366C153.645 181.609 153.468 181.806 153.247 181.808L141.338 181.923C140.958 181.926 140.729 181.489 140.888 181.138C142.451 181.242 146.432 181.466 149.783 181.319Z" fill="url(#paint31_linear_4861_121084)"/>
<path d="M140.888 181.138C140.901 181.108 140.913 181.077 140.933 181.048C141.961 179.562 144.592 176.593 149.864 175.238L152.402 175.117C152.402 175.117 153.564 177.064 153.644 180.703C153.068 180.95 151.951 181.223 149.783 181.319C146.432 181.467 142.451 181.242 140.888 181.138Z" fill="url(#paint32_linear_4861_121084)"/>
<path d="M152.811 171.258C152.786 171.448 152.484 174.33 152.367 175.447C152.339 175.713 152.151 175.921 151.909 175.954C151.478 176.012 150.779 176.07 150.165 175.955C149.833 175.892 149.589 175.579 149.583 175.21L149.511 170.695L152.811 171.258Z" fill="url(#paint33_linear_4861_121084)"/>
<path d="M154.003 118.736C154.003 118.736 148.254 142.106 148.836 171.39C148.847 171.924 149.229 172.379 149.754 172.481C150.526 172.63 151.661 172.805 152.598 172.763C153.097 172.741 153.51 172.364 153.586 171.869C154.363 166.82 158.834 138.374 161.567 133.723C161.567 133.723 163.821 158.958 163.442 172.075C163.433 172.401 163.676 172.68 164.001 172.712C164.493 172.761 165.28 172.792 166.279 172.669C166.659 172.623 166.961 172.331 167.009 171.952C167.552 167.68 170.663 142.257 170.219 123.987C170.194 122.956 167.406 118.52 167.406 118.52L154.003 118.736Z" fill="url(#paint34_linear_4861_121084)"/>
<path d="M145.032 90.707C146.006 89.4452 146.855 88.0957 147.561 86.7081C148.548 84.7699 147.663 87.9508 147.906 85.7762C155.435 80.1567 166.95 82.7542 171.395 83.2417C172.853 83.4015 174.195 84.0973 175.172 85.1913C179.045 89.5298 187.581 101.441 177.957 113.737C176.689 113.06 174.886 111.97 173.652 110.695C174.689 107.615 174.715 103.7 172.361 98.9377C172.289 99.3193 172.199 99.6974 172.088 100.07C169.11 110.062 169.076 118.338 169.114 120.244C169.119 120.503 168.967 120.739 168.729 120.839C164.625 122.56 156.659 121.703 153.984 121.349C153.494 121.284 153.157 120.833 153.217 120.342C154.374 110.832 147.4 95.3305 145.562 91.4493C145.43 91.1701 145.249 90.9198 145.032 90.707Z" fill="#3ECC5F"/>
<path d="M164.129 75.3666L165.056 83.486C165.056 83.486 160.503 84.9376 157.138 82.6435L159.358 75.2148L164.129 75.3666Z" fill="url(#paint35_linear_4861_121084)"/>
<path d="M158.672 66.1848C158.563 66.2903 154.17 75.2725 154.17 75.2725L159.352 77.672L164.781 69.7773C164.781 69.7773 160.487 64.42 158.672 66.1848Z" fill="url(#paint36_linear_4861_121084)"/>
<path d="M162.509 70.0302C162.604 70.2661 162.586 70.5313 162.458 70.7516L159.963 75.068C159.925 75.1335 159.879 75.1928 159.825 75.2453C159.524 75.5344 158.493 76.3778 157.667 75.2655C156.964 74.3175 156.304 73.4559 155.606 73.1075C155.199 72.9039 154.704 73.0797 154.505 73.4895C154.096 74.3338 153.305 76.0542 152.817 77.6812C152.695 78.089 152.911 78.5213 153.309 78.6748C154.356 79.0799 156.427 79.8096 158.257 80.0322C158.557 80.0688 158.852 79.9374 159.027 79.69C159.795 78.601 161.961 75.5576 162.705 74.7926C163.396 74.0818 164.696 74.3247 165.282 74.483C165.505 74.5432 165.741 74.5087 165.936 74.3865C166.523 74.0202 167.542 73.115 166.572 71.6257C166.331 71.2555 166.443 70.7552 166.808 70.5065C167.463 70.0608 168.167 69.2325 167.462 67.921C166.748 66.5933 165.51 66.493 164.67 66.6094C164.298 66.661 163.917 66.4717 163.768 66.127C163.702 65.9737 163.574 65.8441 163.34 65.8004C162.897 65.718 162.601 65.3191 162.68 64.8759C162.817 64.1159 162.689 63.1334 161.469 62.4878C159.23 61.3037 157.319 63.3226 156.852 65.0084C156.385 66.6942 158.884 67.84 160.448 68.0127C161.597 68.1396 162.245 69.3804 162.509 70.0302Z" fill="#101010"/>
<path d="M161.767 76.3773C161.767 76.3773 162.707 73.4748 163.971 73.5605C165.236 73.6461 166.25 74.8881 164.708 76.3275C162.789 78.118 161.767 76.3773 161.767 76.3773Z" fill="url(#paint37_linear_4861_121084)"/>
<path d="M172.765 98.1869C174.357 93.6046 173.664 88.1135 173.657 88.0586L173.199 88.1184C173.206 88.1724 173.884 93.5581 172.329 98.0353L172.765 98.1869Z" fill="#3ECC5F"/>
<path d="M161.783 133.126C161.885 133.124 161.978 133.054 162.003 132.95C162.479 130.983 166.247 128.769 166.285 128.747C166.396 128.683 166.433 128.542 166.369 128.431C166.304 128.321 166.164 128.283 166.053 128.348C165.891 128.442 162.077 130.683 161.554 132.841C161.524 132.965 161.601 133.09 161.724 133.12C161.744 133.124 161.763 133.126 161.783 133.126Z" fill="url(#paint38_linear_4861_121084)"/>
<path d="M129.612 93.5129C138.248 94.6668 143.775 89.1404 147.906 85.7756C153.36 81.333 157.693 83.3818 157.693 83.3818L151.983 94.7203C143.319 103.157 134.269 101.46 128.539 98.8639C128.416 96.6936 128.967 94.8668 129.612 93.5129Z" fill="#3ECC5F"/>
<path d="M117.421 88.5703L120.302 90.0617C123.762 92.0926 126.846 93.1456 129.612 93.515C128.967 94.869 128.416 96.6958 128.539 98.8661C124.891 97.2133 122.588 95.196 122.588 95.196C116.054 91.441 117.421 88.5703 117.421 88.5703Z" fill="#3ECC5F"/>
<path d="M109.068 92.7313C109.243 92.1153 109.688 91.6119 110.278 91.3635L116.039 88.9384C116.039 88.9384 116.115 88.1934 114.794 87.7092C113.473 87.2251 113.756 85.75 113.756 85.75C113.756 85.75 115.563 86.5392 118.209 87.7943C119.722 88.512 120.586 89.8085 121.048 90.7875L119.587 92.7745C116.031 93.9056 112.418 94.1691 108.765 93.802L109.068 92.7313Z" fill="url(#paint39_linear_4861_121084)"/>
<path d="M149.441 57.2791L155.456 63.67V55.0625L149.441 57.2791Z" fill="url(#paint40_linear_4861_121084)"/>
<path d="M153.748 57.8062L119.162 55.9971C118.308 55.9524 117.638 55.2162 117.638 54.3232V44.4846C117.638 43.5438 118.379 42.7873 119.279 42.8091L153.865 43.646C154.737 43.6671 155.432 44.4111 155.432 45.3215V56.1323C155.432 57.0909 154.664 57.8541 153.748 57.8062Z" fill="url(#paint41_linear_4861_121084)"/>
<path d="M152.841 56.8643L119.524 55.255C118.701 55.2153 118.056 54.5605 118.056 53.7661V45.0143C118.056 44.1774 118.77 43.5044 119.637 43.5238L152.954 44.2684C153.793 44.2871 154.464 44.9489 154.464 45.7588V55.3753C154.464 56.228 153.724 56.9069 152.841 56.8643Z" fill="#7D97F4"/>
<defs>
<linearGradient id="paint0_linear_4861_121084" x1="160.538" y1="40.7814" x2="179.691" y2="40.7814" gradientUnits="userSpaceOnUse">
<stop stop-color="#FEBBBA"/>
<stop offset="1" stop-color="#FF928E"/>
</linearGradient>
<linearGradient id="paint1_linear_4861_121084" x1="157.102" y1="26.1441" x2="158.86" y2="26.1441" gradientUnits="userSpaceOnUse">
<stop stop-color="#FEBBBA"/>
<stop offset="1" stop-color="#FF928E"/>
</linearGradient>
<linearGradient id="paint2_linear_4861_121084" x1="144.262" y1="33.5044" x2="145.717" y2="33.5044" gradientUnits="userSpaceOnUse">
<stop stop-color="#FEBBBA"/>
<stop offset="1" stop-color="#FF928E"/>
</linearGradient>
<linearGradient id="paint3_linear_4861_121084" x1="140.57" y1="50.0979" x2="160.67" y2="50.0979" gradientUnits="userSpaceOnUse">
<stop stop-color="#FEBBBA"/>
<stop offset="1" stop-color="#FF928E"/>
</linearGradient>
<linearGradient id="paint4_linear_4861_121084" x1="162.299" y1="63.9275" x2="164.052" y2="63.9275" gradientUnits="userSpaceOnUse">
<stop stop-color="#FEBBBA"/>
<stop offset="1" stop-color="#FF928E"/>
</linearGradient>
<linearGradient id="paint5_linear_4861_121084" x1="145.901" y1="44.9555" x2="174.492" y2="44.9555" gradientUnits="userSpaceOnUse">
<stop stop-color="#FEBBBA"/>
<stop offset="1" stop-color="#FF928E"/>
</linearGradient>
<linearGradient id="paint6_linear_4861_121084" x1="161.705" y1="40.3303" x2="182.669" y2="-23.9783" gradientUnits="userSpaceOnUse">
<stop stop-color="#FEBBBA"/>
<stop offset="1" stop-color="#FF928E"/>
</linearGradient>
<linearGradient id="paint7_linear_4861_121084" x1="161.663" y1="40.3205" x2="182.627" y2="-23.9879" gradientUnits="userSpaceOnUse">
<stop stop-color="#FEBBBA"/>
<stop offset="1" stop-color="#FF928E"/>
</linearGradient>
<linearGradient id="paint8_linear_4861_121084" x1="175.503" y1="68.2245" x2="195.602" y2="68.2245" gradientUnits="userSpaceOnUse">
<stop stop-color="#FEBBBA"/>
<stop offset="1" stop-color="#FF928E"/>
</linearGradient>
<linearGradient id="paint9_linear_4861_121084" x1="172.687" y1="58.3241" x2="174.148" y2="58.3241" gradientUnits="userSpaceOnUse">
<stop stop-color="#FEBBBA"/>
<stop offset="1" stop-color="#FF928E"/>
</linearGradient>
<linearGradient id="paint10_linear_4861_121084" x1="163.555" y1="66.9878" x2="164.66" y2="66.9878" gradientUnits="userSpaceOnUse">
<stop stop-color="#FEBBBA"/>
<stop offset="1" stop-color="#FF928E"/>
</linearGradient>
<linearGradient id="paint11_linear_4861_121084" x1="162.281" y1="79.6197" x2="183.163" y2="79.6197" gradientUnits="userSpaceOnUse">
<stop stop-color="#FEBBBA"/>
<stop offset="1" stop-color="#FF928E"/>
</linearGradient>
<linearGradient id="paint12_linear_4861_121084" x1="184.454" y1="88.604" x2="185.905" y2="88.604" gradientUnits="userSpaceOnUse">
<stop stop-color="#FEBBBA"/>
<stop offset="1" stop-color="#FF928E"/>
</linearGradient>
<linearGradient id="paint13_linear_4861_121084" x1="166.39" y1="73.472" x2="191.545" y2="73.472" gradientUnits="userSpaceOnUse">
<stop stop-color="#FEBBBA"/>
<stop offset="1" stop-color="#FF928E"/>
</linearGradient>
<linearGradient id="paint14_linear_4861_121084" x1="187.075" y1="48.6032" x2="208.039" y2="-15.7052" gradientUnits="userSpaceOnUse">
<stop stop-color="#FEBBBA"/>
<stop offset="1" stop-color="#FF928E"/>
</linearGradient>
<linearGradient id="paint15_linear_4861_121084" x1="187.03" y1="48.5871" x2="207.994" y2="-15.7214" gradientUnits="userSpaceOnUse">
<stop stop-color="#FEBBBA"/>
<stop offset="1" stop-color="#FF928E"/>
</linearGradient>
<linearGradient id="paint16_linear_4861_121084" x1="109.075" y1="71.1273" x2="89.7632" y2="102.077" gradientUnits="userSpaceOnUse">
<stop stop-color="#FEBBBA"/>
<stop offset="1" stop-color="#FF928E"/>
</linearGradient>
<linearGradient id="paint17_linear_4861_121084" x1="85.2908" y1="92.5394" x2="81.6703" y2="84.4986" gradientUnits="userSpaceOnUse">
<stop stop-color="#FEBBBA"/>
<stop offset="1" stop-color="#FF928E"/>
</linearGradient>
<linearGradient id="paint18_linear_4861_121084" x1="85.4766" y1="72.9976" x2="78.129" y2="88.9055" gradientUnits="userSpaceOnUse">
<stop stop-color="#FEBBBA"/>
<stop offset="1" stop-color="#FF928E"/>
</linearGradient>
<linearGradient id="paint19_linear_4861_121084" x1="82.0202" y1="71.3989" x2="74.6726" y2="87.3067" gradientUnits="userSpaceOnUse">
<stop stop-color="#FEBBBA"/>
<stop offset="1" stop-color="#FF928E"/>
</linearGradient>
<linearGradient id="paint20_linear_4861_121084" x1="64.9738" y1="192.671" x2="91.9485" y2="143.982" gradientUnits="userSpaceOnUse">
<stop stop-color="#FEBBBA"/>
<stop offset="1" stop-color="#FF928E"/>
</linearGradient>
<linearGradient id="paint21_linear_4861_121084" x1="70.7917" y1="175.491" x2="78.811" y2="175.415" gradientUnits="userSpaceOnUse">
<stop stop-color="#09005D"/>
<stop offset="1" stop-color="#1A0F91"/>
</linearGradient>
<linearGradient id="paint22_linear_4861_121084" x1="95.7242" y1="156.55" x2="54.8191" y2="170.059" gradientUnits="userSpaceOnUse">
<stop stop-color="#FEBBBA"/>
<stop offset="1" stop-color="#FF928E"/>
</linearGradient>
<linearGradient id="paint23_linear_4861_121084" x1="78.2399" y1="176.871" x2="87.7996" y2="176.781" gradientUnits="userSpaceOnUse">
<stop stop-color="#09005D"/>
<stop offset="1" stop-color="#1A0F91"/>
</linearGradient>
<linearGradient id="paint24_linear_4861_121084" x1="67.5647" y1="117.553" x2="106.229" y2="60.2257" gradientUnits="userSpaceOnUse">
<stop stop-color="#FEBBBA"/>
<stop offset="1" stop-color="#FF928E"/>
</linearGradient>
<linearGradient id="paint25_linear_4861_121084" x1="233.788" y1="402.857" x2="221.136" y2="360.796" gradientUnits="userSpaceOnUse">
<stop stop-color="#FF928E"/>
<stop offset="1" stop-color="#FE7062"/>
</linearGradient>
<linearGradient id="paint26_linear_4861_121084" x1="197.338" y1="249.307" x2="176.363" y2="210.715" gradientUnits="userSpaceOnUse">
<stop stop-color="#FF928E"/>
<stop offset="1" stop-color="#FE7062"/>
</linearGradient>
<linearGradient id="paint27_linear_4861_121084" x1="178.005" y1="116.72" x2="166.183" y2="116.91" gradientUnits="userSpaceOnUse">
<stop stop-color="#FEBBBA"/>
<stop offset="1" stop-color="#FF928E"/>
</linearGradient>
<linearGradient id="paint28_linear_4861_121084" x1="167.098" y1="177.73" x2="158.234" y2="177.872" gradientUnits="userSpaceOnUse">
<stop stop-color="#09005D"/>
<stop offset="1" stop-color="#1A0F91"/>
</linearGradient>
<linearGradient id="paint29_linear_4861_121084" x1="144.739" y1="167.632" x2="177.395" y2="192.435" gradientUnits="userSpaceOnUse">
<stop stop-color="#53D8FF"/>
<stop offset="1" stop-color="#3840F7"/>
</linearGradient>
<linearGradient id="paint30_linear_4861_121084" x1="164.471" y1="167.68" x2="166.402" y2="182.431" gradientUnits="userSpaceOnUse">
<stop stop-color="#FEBBBA"/>
<stop offset="1" stop-color="#FF928E"/>
</linearGradient>
<linearGradient id="paint31_linear_4861_121084" x1="139.127" y1="175.022" x2="171.784" y2="199.824" gradientUnits="userSpaceOnUse">
<stop stop-color="#53D8FF"/>
<stop offset="1" stop-color="#3840F7"/>
</linearGradient>
<linearGradient id="paint32_linear_4861_121084" x1="153.604" y1="178.187" x2="140.843" y2="178.392" gradientUnits="userSpaceOnUse">
<stop stop-color="#09005D"/>
<stop offset="1" stop-color="#1A0F91"/>
</linearGradient>
<linearGradient id="paint33_linear_4861_121084" x1="150.703" y1="169.48" x2="152.634" y2="184.231" gradientUnits="userSpaceOnUse">
<stop stop-color="#FEBBBA"/>
<stop offset="1" stop-color="#FF928E"/>
</linearGradient>
<linearGradient id="paint34_linear_4861_121084" x1="129.496" y1="102.23" x2="185.006" y2="185.395" gradientUnits="userSpaceOnUse">
<stop stop-color="#09005D"/>
<stop offset="1" stop-color="#1A0F91"/>
</linearGradient>
<linearGradient id="paint35_linear_4861_121084" x1="159.208" y1="73.2696" x2="166.123" y2="101.104" gradientUnits="userSpaceOnUse">
<stop stop-color="#FEBBBA"/>
<stop offset="1" stop-color="#FF928E"/>
</linearGradient>
<linearGradient id="paint36_linear_4861_121084" x1="160.193" y1="67.8452" x2="157.308" y2="86.6481" gradientUnits="userSpaceOnUse">
<stop stop-color="#FEBBBA"/>
<stop offset="1" stop-color="#FF928E"/>
</linearGradient>
<linearGradient id="paint37_linear_4861_121084" x1="163.286" y1="88.2678" x2="163.642" y2="75.0908" gradientUnits="userSpaceOnUse">
<stop stop-color="#FEBBBA"/>
<stop offset="1" stop-color="#FF928E"/>
</linearGradient>
<linearGradient id="paint38_linear_4861_121084" x1="160.232" y1="124.306" x2="164.903" y2="132.314" gradientUnits="userSpaceOnUse">
<stop stop-color="#09005D"/>
<stop offset="1" stop-color="#1A0F91"/>
</linearGradient>
<linearGradient id="paint39_linear_4861_121084" x1="103.192" y1="77.6294" x2="143.571" y2="127.611" gradientUnits="userSpaceOnUse">
<stop stop-color="#FEBBBA"/>
<stop offset="1" stop-color="#FF928E"/>
</linearGradient>
<linearGradient id="paint40_linear_4861_121084" x1="73.2464" y1="-11.0606" x2="160.219" y2="63.4467" gradientUnits="userSpaceOnUse">
<stop stop-color="#4F52FF"/>
<stop offset="1" stop-color="#4042E2"/>
</linearGradient>
<linearGradient id="paint41_linear_4861_121084" x1="69.9527" y1="-7.21715" x2="156.925" y2="67.2899" gradientUnits="userSpaceOnUse">
<stop stop-color="#4F52FF"/>
<stop offset="1" stop-color="#4042E2"/>
</linearGradient>
</defs>
</svg>
