<svg width="32" height="32" viewBox="0 0 32 32" fill="none" xmlns="http://www.w3.org/2000/svg">
<path d="M27.3698 24.38C28.8831 22.2858 29.8088 19.7448 29.9077 16.9922H24.7368L22.8962 18.8664H3C3.22806 20.1506 3.63729 21.3732 4.20263 22.5051H19.8009L17.9594 24.38H27.3698Z" fill="#4D555B"/>
<path d="M18.5562 8.625L20.2773 10.4992H4.20232C3.63729 11.6315 3.22806 12.8537 3 14.1383H23.139L24.8598 16.0125H29.9077C29.8088 13.2595 28.8831 10.7186 27.3695 8.625H18.5562Z" fill="#4D555B"/>
<path d="M8.11526 5.76837H15.9281L17.6496 7.64691H26.588C24.1051 4.81262 20.4304 3 16.3585 3C13.2466 3 10.3995 4.02166 8.11526 5.76837Z" fill="url(#paint0_radial_4857_120582)"/>
<path d="M16.9873 25.3516L15.1664 27.2302H8.11459C10.399 28.977 13.2462 29.9987 16.3583 29.9987C20.4305 29.9987 24.1054 28.219 26.5884 25.3516H16.9873Z" fill="url(#paint1_radial_4857_120582)"/>
<defs>
<radialGradient id="paint0_radial_4857_120582" cx="0" cy="0" r="1" gradientUnits="userSpaceOnUse" gradientTransform="translate(22.4168 15.7149) scale(33.1053 32.9568)">
<stop stop-color="#FBB040"/>
<stop offset="1" stop-color="#F15A29"/>
</radialGradient>
<radialGradient id="paint1_radial_4857_120582" cx="0" cy="0" r="1" gradientUnits="userSpaceOnUse" gradientTransform="translate(22.4169 15.7127) scale(33.1072 32.9587)">
<stop stop-color="#FBB040"/>
<stop offset="1" stop-color="#F15A29"/>
</radialGradient>
</defs>
</svg>
